Groote-Romyn-10.ufo
<glyph name="ampersand" format="2">
  <advance width="866"/>
  <unicode hex="0026"/>
  <outline>
    <contour>
      <point x="243" y="-15" type="curve"/>
      <point x="315" y="-15"/>
      <point x="399" y="31"/>
      <point x="445" y="95" type="curve" smooth="yes"/>
      <point x="497" y="167" type="line"/>
      <point x="483" y="199" type="line"/>
      <point x="416" y="113" type="line" smooth="yes"/>
      <point x="386" y="74"/>
      <point x="329" y="53"/>
      <point x="282" y="53" type="curve" smooth="yes"/>
      <point x="214" y="53"/>
      <point x="151" y="128"/>
      <point x="151" y="215" type="curve" smooth="yes"/>
      <point x="151" y="354"/>
      <point x="441" y="406"/>
      <point x="441" y="542" type="curve" smooth="yes"/>
      <point x="441" y="615"/>
      <point x="385" y="666"/>
      <point x="307" y="666" type="curve" smooth="yes"/>
      <point x="206" y="666"/>
      <point x="135" y="612"/>
      <point x="135" y="536" type="curve" smooth="yes"/>
      <point x="135" y="496"/>
      <point x="148" y="456"/>
      <point x="182" y="424" type="curve" smooth="yes"/>
      <point x="219" y="390"/>
      <point x="394" y="235"/>
      <point x="411" y="218" type="curve" smooth="yes"/>
      <point x="444" y="185"/>
      <point x="478" y="124"/>
      <point x="503" y="72" type="curve" smooth="yes"/>
      <point x="526" y="24"/>
      <point x="588" y="-10"/>
      <point x="639" y="-10" type="curve" smooth="yes"/>
      <point x="689" y="-10"/>
      <point x="759" y="23"/>
      <point x="809" y="70" type="curve"/>
      <point x="790" y="95" type="line"/>
      <point x="758" y="70"/>
      <point x="717" y="49"/>
      <point x="685" y="49" type="curve" smooth="yes"/>
      <point x="651" y="49"/>
      <point x="609" y="76"/>
      <point x="587" y="115" type="curve" smooth="yes"/>
      <point x="546" y="188"/>
      <point x="505" y="254"/>
      <point x="453" y="302" type="curve" smooth="yes"/>
      <point x="372" y="377"/>
      <point x="309" y="421"/>
      <point x="269" y="459" type="curve" smooth="yes"/>
      <point x="235" y="489"/>
      <point x="206" y="527"/>
      <point x="206" y="556" type="curve" smooth="yes"/>
      <point x="206" y="600"/>
      <point x="242" y="629"/>
      <point x="287" y="629" type="curve" smooth="yes"/>
      <point x="337" y="629"/>
      <point x="372" y="596"/>
      <point x="372" y="535" type="curve" smooth="yes"/>
      <point x="372" y="412"/>
      <point x="57" y="348"/>
      <point x="57" y="176" type="curve"/>
      <point x="57" y="64"/>
      <point x="126" y="-15"/>
    </contour>
    <contour>
      <point x="497" y="159" type="line"/>
      <point x="650" y="364" type="line"/>
      <point x="667" y="388"/>
      <point x="699" y="395"/>
      <point x="741" y="395" type="curve" smooth="yes"/>
      <point x="789" y="395" type="line"/>
      <point x="789" y="433" type="line"/>
      <point x="542" y="433" type="line"/>
      <point x="542" y="395" type="line"/>
      <point x="548" y="395"/>
      <point x="563" y="395"/>
      <point x="591" y="395" type="curve" smooth="yes"/>
      <point x="602" y="395"/>
      <point x="609" y="393"/>
      <point x="609" y="384" type="curve" smooth="yes"/>
      <point x="609" y="374"/>
      <point x="599" y="358"/>
      <point x="584" y="338" type="curve"/>
      <point x="483" y="191" type="line"/>
    </contour>
  </outline>
</glyph>
<glyph name="asterisk" format="2">
  <advance width="774"/>
  <unicode hex="002A"/>
  <outline>
    <contour>
      <point x="377" y="330" type="curve" smooth="yes"/>
      <point x="396" y="330" type="line"/>
      <point x="396" y="349"/>
      <point x="449" y="462"/>
      <point x="449" y="504" type="curve" smooth="yes"/>
      <point x="449" y="548"/>
      <point x="421" y="579"/>
      <point x="380" y="579" type="curve" smooth="yes"/>
      <point x="340" y="579"/>
      <point x="311" y="549"/>
      <point x="311" y="507" type="curve" smooth="yes"/>
      <point x="311" y="473"/>
      <point x="377" y="351"/>
    </contour>
    <contour>
      <point x="391" y="366" type="curve" smooth="yes"/>
      <point x="391" y="363"/>
      <point x="385" y="366"/>
      <point x="381" y="366" type="curve"/>
      <point x="381" y="390"/>
      <point x="339" y="479"/>
      <point x="339" y="503" type="curve" smooth="yes"/>
      <point x="339" y="541"/>
      <point x="362" y="552"/>
      <point x="378" y="552" type="curve" smooth="yes"/>
      <point x="398" y="552"/>
      <point x="422" y="541"/>
      <point x="422" y="504" type="curve" smooth="yes"/>
      <point x="422" y="468"/>
      <point x="391" y="390"/>
    </contour>
    <contour>
      <point x="440" y="313" type="curve" smooth="yes"/>
      <point x="453" y="300" type="line"/>
      <point x="467" y="314"/>
      <point x="584" y="356"/>
      <point x="614" y="386" type="curve"/>
      <point x="645" y="417"/>
      <point x="647" y="459"/>
      <point x="618" y="488" type="curve" smooth="yes"/>
      <point x="590" y="516"/>
      <point x="548" y="515"/>
      <point x="518" y="485" type="curve" smooth="yes"/>
      <point x="495" y="462"/>
      <point x="455" y="329"/>
    </contour>
    <contour>
      <point x="476" y="329" type="curve" smooth="yes"/>
      <point x="474" y="327"/>
      <point x="471" y="334"/>
      <point x="469" y="336" type="curve"/>
      <point x="485" y="353"/>
      <point x="518" y="446"/>
      <point x="536" y="463" type="curve" smooth="yes"/>
      <point x="562" y="489"/>
      <point x="586" y="481"/>
      <point x="597" y="470" type="curve" smooth="yes"/>
      <point x="612" y="456"/>
      <point x="621" y="431"/>
      <point x="595" y="405" type="curve" smooth="yes"/>
      <point x="569" y="380"/>
      <point x="492" y="346"/>
    </contour>
    <contour>
      <point x="470" y="254" type="curve" smooth="yes"/>
      <point x="470" y="235" type="line"/>
      <point x="489" y="235"/>
      <point x="602" y="182"/>
      <point x="644" y="182" type="curve" smooth="yes"/>
      <point x="688" y="182"/>
      <point x="719" y="210"/>
      <point x="719" y="251" type="curve" smooth="yes"/>
      <point x="719" y="291"/>
      <point x="689" y="320"/>
      <point x="647" y="320" type="curve" smooth="yes"/>
      <point x="613" y="320"/>
      <point x="491" y="254"/>
    </contour>
    <contour>
      <point x="506" y="240" type="curve" smooth="yes"/>
      <point x="503" y="240"/>
      <point x="506" y="246"/>
      <point x="506" y="250" type="curve"/>
      <point x="530" y="250"/>
      <point x="619" y="292"/>
      <point x="643" y="292" type="curve" smooth="yes"/>
      <point x="681" y="292"/>
      <point x="692" y="269"/>
      <point x="692" y="253" type="curve" smooth="yes"/>
      <point x="692" y="233"/>
      <point x="681" y="209"/>
      <point x="644" y="209" type="curve" smooth="yes"/>
      <point x="608" y="209"/>
      <point x="530" y="240"/>
    </contour>
    <contour>
      <point x="453" y="194" type="curve" smooth="yes"/>
      <point x="440" y="181" type="line"/>
      <point x="454" y="167"/>
      <point x="496" y="49"/>
      <point x="526" y="19" type="curve" smooth="yes"/>
      <point x="557" y="-12"/>
      <point x="599" y="-14"/>
      <point x="628" y="15" type="curve" smooth="yes"/>
      <point x="656" y="44"/>
      <point x="655" y="85"/>
      <point x="625" y="115" type="curve" smooth="yes"/>
      <point x="602" y="139"/>
      <point x="469" y="178"/>
    </contour>
    <contour>
      <point x="469" y="158" type="curve" smooth="yes"/>
      <point x="467" y="160"/>
      <point x="474" y="162"/>
      <point x="476" y="165" type="curve"/>
      <point x="493" y="148"/>
      <point x="586" y="115"/>
      <point x="603" y="98" type="curve" smooth="yes"/>
      <point x="629" y="71"/>
      <point x="621" y="47"/>
      <point x="610" y="36" type="curve" smooth="yes"/>
      <point x="596" y="22"/>
      <point x="571" y="13"/>
      <point x="545" y="39" type="curve" smooth="yes"/>
      <point x="520" y="64"/>
      <point x="486" y="141"/>
    </contour>
    <contour>
      <point x="397" y="163" type="curve" smooth="yes"/>
      <point x="379" y="163" type="line"/>
      <point x="379" y="143"/>
      <point x="325" y="31"/>
      <point x="325" y="-12" type="curve" smooth="yes"/>
      <point x="325" y="-56"/>
      <point x="354" y="-87"/>
      <point x="394" y="-87" type="curve" smooth="yes"/>
      <point x="435" y="-87"/>
      <point x="463" y="-57"/>
      <point x="463" y="-14" type="curve" smooth="yes"/>
      <point x="463" y="19"/>
      <point x="397" y="141"/>
    </contour>
    <contour>
      <point x="383" y="126" type="curve" smooth="yes"/>
      <point x="383" y="129"/>
      <point x="390" y="126"/>
      <point x="393" y="126" type="curve"/>
      <point x="393" y="103"/>
      <point x="435" y="14"/>
      <point x="435" y="-11" type="curve" smooth="yes"/>
      <point x="435" y="-48"/>
      <point x="412" y="-59"/>
      <point x="397" y="-59" type="curve" smooth="yes"/>
      <point x="376" y="-59"/>
      <point x="353" y="-49"/>
      <point x="353" y="-12" type="curve" smooth="yes"/>
      <point x="353" y="24"/>
      <point x="383" y="103"/>
    </contour>
    <contour>
      <point x="335" y="179" type="curve" smooth="yes"/>
      <point x="322" y="192" type="line"/>
      <point x="308" y="178"/>
      <point x="190" y="137"/>
      <point x="160" y="107" type="curve"/>
      <point x="129" y="75"/>
      <point x="127" y="33"/>
      <point x="156" y="5" type="curve" smooth="yes"/>
      <point x="185" y="-24"/>
      <point x="226" y="-23"/>
      <point x="256" y="7" type="curve" smooth="yes"/>
      <point x="280" y="31"/>
      <point x="319" y="164"/>
    </contour>
    <contour>
      <point x="299" y="163" type="curve" smooth="yes"/>
      <point x="301" y="165"/>
      <point x="303" y="159"/>
      <point x="306" y="156" type="curve"/>
      <point x="289" y="139"/>
      <point x="256" y="47"/>
      <point x="239" y="30" type="curve" smooth="yes"/>
      <point x="212" y="3"/>
      <point x="188" y="12"/>
      <point x="177" y="22" type="curve" smooth="yes"/>
      <point x="163" y="37"/>
      <point x="154" y="61"/>
      <point x="180" y="87" type="curve" smooth="yes"/>
      <point x="205" y="113"/>
      <point x="282" y="147"/>
    </contour>
    <contour>
      <point x="305" y="239" type="curve" smooth="yes"/>
      <point x="305" y="257" type="line"/>
      <point x="285" y="257"/>
      <point x="173" y="311"/>
      <point x="130" y="311" type="curve" smooth="yes"/>
      <point x="86" y="311"/>
      <point x="55" y="282"/>
      <point x="55" y="242" type="curve" smooth="yes"/>
      <point x="55" y="201"/>
      <point x="85" y="173"/>
      <point x="128" y="173" type="curve" smooth="yes"/>
      <point x="161" y="173"/>
      <point x="283" y="239"/>
    </contour>
    <contour>
      <point x="268" y="253" type="curve" smooth="yes"/>
      <point x="271" y="253"/>
      <point x="268" y="246"/>
      <point x="268" y="243" type="curve"/>
      <point x="245" y="243"/>
      <point x="156" y="201"/>
      <point x="131" y="201" type="curve" smooth="yes"/>
      <point x="94" y="201"/>
      <point x="83" y="224"/>
      <point x="83" y="239" type="curve" smooth="yes"/>
      <point x="83" y="260"/>
      <point x="93" y="283"/>
      <point x="130" y="283" type="curve" smooth="yes"/>
      <point x="166" y="283"/>
      <point x="245" y="253"/>
    </contour>
    <contour>
      <point x="321" y="299" type="curve" smooth="yes"/>
      <point x="334" y="312" type="line"/>
      <point x="320" y="326"/>
      <point x="279" y="443"/>
      <point x="249" y="473" type="curve" smooth="yes"/>
      <point x="217" y="504"/>
      <point x="175" y="506"/>
      <point x="147" y="477" type="curve" smooth="yes"/>
      <point x="118" y="449"/>
      <point x="119" y="407"/>
      <point x="149" y="377" type="curve" smooth="yes"/>
      <point x="173" y="354"/>
      <point x="306" y="314"/>
    </contour>
    <contour>
      <point x="305" y="335" type="curve" smooth="yes"/>
      <point x="307" y="333"/>
      <point x="301" y="330"/>
      <point x="298" y="328" type="curve"/>
      <point x="281" y="344"/>
      <point x="189" y="377"/>
      <point x="172" y="395" type="curve" smooth="yes"/>
      <point x="145" y="421"/>
      <point x="154" y="445"/>
      <point x="164" y="456" type="curve" smooth="yes"/>
      <point x="179" y="471"/>
      <point x="203" y="480"/>
      <point x="229" y="454" type="curve" smooth="yes"/>
      <point x="255" y="428"/>
      <point x="289" y="351"/>
    </contour>
  </outline>
</glyph>
<glyph name="comma" format="2">
  <advance width="298"/>
  <unicode hex="002C"/>
  <outline>
    <contour>
      <point x="69" y="-147" type="curve"/>
      <point x="81" y="-179" type="line"/>
      <point x="169" y="-143"/>
      <point x="231" y="-58"/>
      <point x="231" y="26" type="curve" smooth="yes"/>
      <point x="231" y="80"/>
      <point x="190" y="124"/>
      <point x="131" y="124" type="curve" smooth="yes"/>
      <point x="89" y="124"/>
      <point x="58" y="95"/>
      <point x="58" y="61" type="curve" smooth="yes"/>
      <point x="58" y="35"/>
      <point x="75" y="10"/>
      <point x="98" y="10" type="curve" smooth="yes"/>
      <point x="120" y="10"/>
      <point x="123" y="19"/>
      <point x="141" y="19" type="curve" smooth="yes"/>
      <point x="157" y="19"/>
      <point x="167" y="0"/>
      <point x="167" y="-27" type="curve" smooth="yes"/>
      <point x="167" y="-85"/>
      <point x="126" y="-132"/>
    </contour>
  </outline>
</glyph>
<glyph name="hyphen" format="2">
  <advance width="366"/>
  <unicode hex="002D"/>
  <outline>
    <contour>
      <point x="48" y="158" type="line"/>
      <point x="318" y="164" type="line"/>
      <point x="321" y="256" type="line"/>
      <point x="268" y="256" type="line"/>
      <point x="89" y="229" type="line"/>
      <point x="45" y="217" type="line"/>
    </contour>
  </outline>
</glyph>
<glyph name="period" format="2">
  <advance width="268"/>
  <unicode hex="002E"/>
  <outline>
    <contour>
      <point x="134" y="-4" type="curve" smooth="yes"/>
      <point x="171" y="-4"/>
      <point x="201" y="26"/>
      <point x="201" y="63" type="curve" smooth="yes"/>
      <point x="201" y="100"/>
      <point x="171" y="130"/>
      <point x="134" y="130" type="curve" smooth="yes"/>
      <point x="97" y="130"/>
      <point x="67" y="100"/>
      <point x="67" y="63" type="curve" smooth="yes"/>
      <point x="67" y="26"/>
      <point x="97" y="-4"/>
    </contour>
  </outline>
</glyph>
<glyph name="colon" format="2">
  <advance width="294"/>
  <unicode hex="003A"/>
  <outline>
    <contour>
      <point x="158" y="226" type="curve" smooth="yes"/>
      <point x="196" y="226"/>
      <point x="227" y="248"/>
      <point x="227" y="276" type="curve" smooth="yes"/>
      <point x="227" y="303"/>
      <point x="196" y="326"/>
      <point x="158" y="326" type="curve" smooth="yes"/>
      <point x="119" y="326"/>
      <point x="89" y="303"/>
      <point x="89" y="276" type="curve" smooth="yes"/>
      <point x="89" y="248"/>
      <point x="119" y="226"/>
    </contour>
    <contour>
      <point x="136" y="-12" type="curve" smooth="yes"/>
      <point x="175" y="-12"/>
      <point x="205" y="11"/>
      <point x="205" y="38" type="curve" smooth="yes"/>
      <point x="205" y="66"/>
      <point x="175" y="88"/>
      <point x="136" y="88" type="curve" smooth="yes"/>
      <point x="98" y="88"/>
      <point x="67" y="66"/>
      <point x="67" y="38" type="curve" smooth="yes"/>
      <point x="67" y="11"/>
      <point x="98" y="-12"/>
    </contour>
  </outline>
</glyph>
<glyph name="semicolon" format="2">
  <advance width="311"/>
  <unicode hex="003B"/>
  <outline>
    <contour>
      <point x="78" y="-153" type="curve"/>
      <point x="90" y="-184" type="line"/>
      <point x="172" y="-152"/>
      <point x="229" y="-67"/>
      <point x="229" y="20" type="curve" smooth="yes"/>
      <point x="229" y="71"/>
      <point x="192" y="107"/>
      <point x="140" y="107" type="curve" smooth="yes"/>
      <point x="98" y="107"/>
      <point x="67" y="86"/>
      <point x="67" y="55" type="curve" smooth="yes"/>
      <point x="67" y="26"/>
      <point x="84" y="4"/>
      <point x="107" y="4" type="curve" smooth="yes"/>
      <point x="128" y="4"/>
      <point x="132" y="13"/>
      <point x="150" y="13" type="curve" smooth="yes"/>
      <point x="166" y="13"/>
      <point x="176" y="-6"/>
      <point x="176" y="-33" type="curve" smooth="yes"/>
      <point x="176" y="-88"/>
      <point x="135" y="-138"/>
    </contour>
    <contour>
      <point x="183" y="226" type="curve" smooth="yes"/>
      <point x="217" y="226"/>
      <point x="244" y="247"/>
      <point x="244" y="274" type="curve" smooth="yes"/>
      <point x="244" y="299"/>
      <point x="217" y="320"/>
      <point x="183" y="320" type="curve" smooth="yes"/>
      <point x="149" y="320"/>
      <point x="121" y="299"/>
      <point x="121" y="274" type="curve" smooth="yes"/>
      <point x="121" y="247"/>
      <point x="149" y="226"/>
    </contour>
  </outline>
</glyph>
<glyph name="A" format="2">
  <advance width="793"/>
  <unicode hex="0041"/>
  <anchor x="397" y="0" name="bottom"/>
  <anchor x="714" y="10" name="ogonek"/>
  <anchor x="397" y="700" name="top"/>
  <outline>
    <contour>
      <point x="471" y="-2" type="line"/>
      <point x="772" y="0" type="line"/>
      <point x="772" y="38" type="line"/>
      <point x="766" y="38" type="line"/>
      <point x="733" y="38"/>
      <point x="687" y="82"/>
      <point x="665" y="144" type="curve" smooth="yes"/>
      <point x="471" y="679" type="line"/>
      <point x="461" y="719" type="line"/>
      <point x="450" y="728" type="line"/>
      <point x="429" y="716"/>
      <point x="384" y="704"/>
      <point x="342" y="700" type="curve"/>
      <point x="342" y="666" type="line"/>
      <point x="374" y="659" type="line"/>
      <point x="470" y="388"/>
      <point x="553" y="162"/>
      <point x="574" y="99" type="curve" smooth="yes"/>
      <point x="585" y="62"/>
      <point x="568" y="36"/>
      <point x="534" y="36" type="curve" smooth="yes"/>
      <point x="471" y="36" type="line"/>
    </contour>
    <contour>
      <point x="21" y="1" type="line"/>
      <point x="320" y="1" type="line"/>
      <point x="320" y="38" type="line"/>
      <point x="313" y="38"/>
      <point x="318" y="39"/>
      <point x="300" y="39" type="curve" smooth="yes"/>
      <point x="247" y="39"/>
      <point x="216" y="69"/>
      <point x="225" y="111" type="curve"/>
      <point x="388" y="660" type="line"/>
      <point x="345" y="686" type="line"/>
      <point x="276" y="480"/>
      <point x="204" y="250"/>
      <point x="171" y="115" type="curve" smooth="yes"/>
      <point x="160" y="70"/>
      <point x="122" y="39"/>
      <point x="79" y="39" type="curve" smooth="yes"/>
      <point x="21" y="39" type="line"/>
    </contour>
    <contour>
      <point x="256" y="288" type="line"/>
      <point x="568" y="288" type="line"/>
      <point x="568" y="333" type="line"/>
      <point x="256" y="333" type="line"/>
    </contour>
  </outline>
</glyph>
<glyph name="B" format="2">
  <advance width="681"/>
  <unicode hex="0042"/>
  <anchor x="341" y="700" name="top"/>
  <anchor x="341" y="0" name="bottom"/>
  <anchor x="170" y="175" name="center"/>
  <outline>
    <contour>
      <point x="33" y="0" type="line"/>
      <point x="75" y="0"/>
      <point x="111" y="2"/>
      <point x="161" y="2" type="curve" smooth="yes"/>
      <point x="213" y="2"/>
      <point x="338" y="0"/>
      <point x="390" y="0" type="curve" smooth="yes"/>
      <point x="526" y="0"/>
      <point x="623" y="78"/>
      <point x="623" y="188" type="curve" smooth="yes"/>
      <point x="623" y="299"/>
      <point x="508" y="382"/>
      <point x="346" y="382" type="curve" smooth="yes"/>
      <point x="193" y="382" type="line"/>
      <point x="193" y="331" type="line"/>
      <point x="244" y="331"/>
      <point x="303" y="331"/>
      <point x="346" y="331" type="curve" smooth="yes"/>
      <point x="432" y="331"/>
      <point x="493" y="273"/>
      <point x="493" y="185" type="curve" smooth="yes"/>
      <point x="493" y="95"/>
      <point x="437" y="41"/>
      <point x="359" y="41" type="curve" smooth="yes"/>
      <point x="285" y="41"/>
      <point x="230" y="67"/>
      <point x="230" y="104" type="curve" smooth="yes"/>
      <point x="230" y="659" type="line"/>
      <point x="259" y="659"/>
      <point x="305" y="659"/>
      <point x="336" y="659" type="curve" smooth="yes"/>
      <point x="410" y="659"/>
      <point x="462" y="609"/>
      <point x="462" y="523" type="curve" smooth="yes"/>
      <point x="462" y="437"/>
      <point x="395" y="382"/>
      <point x="300" y="382" type="curve"/>
      <point x="300" y="339" type="line"/>
      <point x="464" y="339"/>
      <point x="580" y="426"/>
      <point x="580" y="541" type="curve" smooth="yes"/>
      <point x="580" y="629"/>
      <point x="481" y="694"/>
      <point x="342" y="699" type="curve" smooth="yes"/>
      <point x="346" y="698"/>
      <point x="277" y="698"/>
      <point x="177" y="698" type="curve" smooth="yes"/>
      <point x="149" y="698"/>
      <point x="42" y="700"/>
      <point x="25" y="700" type="curve"/>
      <point x="25" y="662" type="line"/>
      <point x="34" y="662"/>
      <point x="40" y="662"/>
      <point x="51" y="662" type="curve" smooth="yes"/>
      <point x="97" y="662"/>
      <point x="130" y="647"/>
      <point x="130" y="611" type="curve" smooth="yes"/>
      <point x="130" y="562"/>
      <point x="130" y="104"/>
      <point x="130" y="71" type="curve" smooth="yes"/>
      <point x="130" y="46"/>
      <point x="105" y="38"/>
      <point x="70" y="38" type="curve" smooth="yes"/>
      <point x="33" y="38" type="line"/>
    </contour>
  </outline>
</glyph>
<glyph name="C" format="2">
  <advance width="822"/>
  <unicode hex="0043"/>
  <anchor x="411" y="700" name="top"/>
  <anchor x="411" y="0" name="bottom"/>
  <outline>
    <contour>
      <point x="451" y="-8" type="curve" smooth="yes"/>
      <point x="568" y="-8"/>
      <point x="693" y="44"/>
      <point x="752" y="118" type="curve"/>
      <point x="755" y="259" type="line"/>
      <point x="732" y="261" type="line"/>
      <point x="719" y="134"/>
      <point x="617" y="44"/>
      <point x="486" y="44" type="curve" smooth="yes"/>
      <point x="320" y="44"/>
      <point x="193" y="192"/>
      <point x="193" y="415" type="curve" smooth="yes"/>
      <point x="193" y="574"/>
      <point x="300" y="677"/>
      <point x="436" y="677" type="curve" smooth="yes"/>
      <point x="563" y="677"/>
      <point x="670" y="614"/>
      <point x="693" y="526" type="curve"/>
      <point x="717" y="526" type="line"/>
      <point x="707" y="707" type="line"/>
      <point x="680" y="707" type="line"/>
      <point x="675" y="689"/>
      <point x="664" y="677"/>
      <point x="654" y="677" type="curve"/>
      <point x="609" y="705"/>
      <point x="523" y="725"/>
      <point x="447" y="725" type="curve" smooth="yes"/>
      <point x="224" y="725"/>
      <point x="67" y="573"/>
      <point x="67" y="359" type="curve" smooth="yes"/>
      <point x="67" y="144"/>
      <point x="226" y="-8"/>
    </contour>
  </outline>
</glyph>
<glyph name="D" format="2">
  <advance width="823"/>
  <unicode hex="0044"/>
  <anchor x="412" y="700" name="top"/>
  <anchor x="412" y="0" name="bottom"/>
  <anchor x="206" y="350" name="center"/>
  <outline>
    <contour>
      <point x="-8" y="-3" type="line"/>
      <point x="54" y="-1"/>
      <point x="131" y="0"/>
      <point x="176" y="0" type="curve" smooth="yes"/>
      <point x="234" y="0"/>
      <point x="306" y="-3"/>
      <point x="373" y="-3" type="curve" smooth="yes"/>
      <point x="597" y="-3"/>
      <point x="756" y="160"/>
      <point x="756" y="390" type="curve" smooth="yes"/>
      <point x="756" y="573"/>
      <point x="611" y="702"/>
      <point x="405" y="702" type="curve" smooth="yes"/>
      <point x="343" y="702"/>
      <point x="201" y="700"/>
      <point x="171" y="700" type="curve" smooth="yes"/>
      <point x="141" y="700"/>
      <point x="89" y="702"/>
      <point x="75" y="702" type="curve" smooth="yes"/>
      <point x="2" y="702" type="line"/>
      <point x="2" y="662" type="line"/>
      <point x="15" y="662"/>
      <point x="15" y="662"/>
      <point x="42" y="662" type="curve" smooth="yes"/>
      <point x="93" y="662"/>
      <point x="130" y="636"/>
      <point x="130" y="586" type="curve" smooth="yes"/>
      <point x="130" y="519"/>
      <point x="130" y="163"/>
      <point x="130" y="132" type="curve" smooth="yes"/>
      <point x="130" y="71"/>
      <point x="87" y="37"/>
      <point x="28" y="37" type="curve" smooth="yes"/>
      <point x="-8" y="37" type="line"/>
    </contour>
    <contour>
      <point x="380" y="42" type="curve" smooth="yes"/>
      <point x="293" y="42"/>
      <point x="230" y="63"/>
      <point x="230" y="107" type="curve" smooth="yes"/>
      <point x="230" y="656" type="line"/>
      <point x="275" y="656"/>
      <point x="337" y="656"/>
      <point x="373" y="656" type="curve" smooth="yes"/>
      <point x="516" y="656"/>
      <point x="628" y="546"/>
      <point x="628" y="368" type="curve" smooth="yes"/>
      <point x="628" y="168"/>
      <point x="519" y="42"/>
    </contour>
  </outline>
</glyph>
<glyph name="E" format="2">
  <advance width="698"/>
  <unicode hex="0045"/>
  <anchor x="349" y="700" name="top"/>
  <anchor x="349" y="0" name="bottom"/>
  <anchor x="628" y="10" name="ogonek"/>
  <anchor x="20" y="700" name="topleft"/>
  <outline>
    <contour>
      <point x="325" y="-1" type="curve" smooth="yes"/>
      <point x="571" y="-1" type="line"/>
      <point x="650" y="143" type="line"/>
      <point x="615" y="158" type="line"/>
      <point x="569" y="82"/>
      <point x="515" y="44"/>
      <point x="470" y="44" type="curve" smooth="yes"/>
      <point x="450" y="44"/>
      <point x="302" y="44"/>
      <point x="276" y="44" type="curve" smooth="yes"/>
      <point x="248" y="44"/>
      <point x="230" y="66"/>
      <point x="230" y="88" type="curve" smooth="yes"/>
      <point x="230" y="202"/>
      <point x="230" y="589"/>
      <point x="230" y="610" type="curve" smooth="yes"/>
      <point x="230" y="636"/>
      <point x="258" y="655"/>
      <point x="300" y="655" type="curve" smooth="yes"/>
      <point x="320" y="655"/>
      <point x="425" y="655"/>
      <point x="438" y="655" type="curve" smooth="yes"/>
      <point x="499" y="655"/>
      <point x="533" y="625"/>
      <point x="533" y="561" type="curve"/>
      <point x="571" y="561" type="line"/>
      <point x="571" y="700" type="line"/>
      <point x="487" y="700"/>
      <point x="340" y="700"/>
      <point x="320" y="700" type="curve" smooth="yes"/>
      <point x="300" y="700"/>
      <point x="206" y="697"/>
      <point x="191" y="697" type="curve" smooth="yes"/>
      <point x="176" y="697"/>
      <point x="79" y="700"/>
      <point x="56" y="700" type="curve"/>
      <point x="56" y="657" type="line"/>
      <point x="101" y="657"/>
      <point x="130" y="633"/>
      <point x="130" y="599" type="curve" smooth="yes"/>
      <point x="130" y="575"/>
      <point x="130" y="181"/>
      <point x="130" y="137" type="curve" smooth="yes"/>
      <point x="130" y="76"/>
      <point x="110" y="43"/>
      <point x="79" y="43" type="curve" smooth="yes"/>
      <point x="44" y="43" type="line"/>
      <point x="44" y="0" type="line"/>
      <point x="75" y="0"/>
      <point x="136" y="0"/>
      <point x="180" y="0" type="curve" smooth="yes"/>
      <point x="224" y="0"/>
      <point x="288" y="-1"/>
    </contour>
    <contour>
      <point x="475" y="260" type="curve"/>
      <point x="507" y="260" type="line"/>
      <point x="503" y="327"/>
      <point x="503" y="395"/>
      <point x="507" y="462" type="curve"/>
      <point x="474" y="462" type="line"/>
      <point x="474" y="403"/>
      <point x="450" y="379"/>
      <point x="411" y="379" type="curve" smooth="yes"/>
      <point x="202" y="379" type="line"/>
      <point x="201" y="339" type="line"/>
      <point x="264" y="339"/>
      <point x="386" y="339"/>
      <point x="411" y="339" type="curve" smooth="yes"/>
      <point x="451" y="339"/>
      <point x="475" y="295"/>
    </contour>
  </outline>
</glyph>
<glyph name="F" format="2">
  <advance width="592"/>
  <unicode hex="0046"/>
  <anchor x="296" y="700" name="top"/>
  <anchor x="296" y="0" name="bottom"/>
  <outline>
    <contour>
      <point x="323" y="-1" type="curve"/>
      <point x="323" y="37" type="line"/>
      <point x="301" y="37"/>
      <point x="284" y="37"/>
      <point x="276" y="37" type="curve" smooth="yes"/>
      <point x="248" y="37"/>
      <point x="230" y="49"/>
      <point x="230" y="81" type="curve" smooth="yes"/>
      <point x="230" y="195"/>
      <point x="230" y="589"/>
      <point x="230" y="610" type="curve" smooth="yes"/>
      <point x="230" y="636"/>
      <point x="258" y="655"/>
      <point x="300" y="655" type="curve" smooth="yes"/>
      <point x="320" y="655"/>
      <point x="425" y="655"/>
      <point x="438" y="655" type="curve" smooth="yes"/>
      <point x="499" y="655"/>
      <point x="523" y="625"/>
      <point x="533" y="561" type="curve"/>
      <point x="571" y="561" type="line"/>
      <point x="561" y="700" type="line"/>
      <point x="477" y="700"/>
      <point x="340" y="700"/>
      <point x="320" y="700" type="curve" smooth="yes"/>
      <point x="300" y="700"/>
      <point x="206" y="697"/>
      <point x="191" y="697" type="curve" smooth="yes"/>
      <point x="176" y="697"/>
      <point x="79" y="700"/>
      <point x="56" y="700" type="curve"/>
      <point x="56" y="657" type="line"/>
      <point x="101" y="657"/>
      <point x="130" y="633"/>
      <point x="130" y="599" type="curve" smooth="yes"/>
      <point x="130" y="575"/>
      <point x="130" y="181"/>
      <point x="130" y="137" type="curve" smooth="yes"/>
      <point x="130" y="69"/>
      <point x="110" y="36"/>
      <point x="79" y="36" type="curve" smooth="yes"/>
      <point x="44" y="36" type="line"/>
      <point x="44" y="0" type="line"/>
      <point x="75" y="0"/>
      <point x="136" y="0"/>
      <point x="180" y="0" type="curve" smooth="yes"/>
      <point x="223" y="0"/>
      <point x="286" y="-1"/>
    </contour>
    <contour>
      <point x="455" y="240" type="curve"/>
      <point x="487" y="240" type="line"/>
      <point x="483" y="307"/>
      <point x="483" y="415"/>
      <point x="487" y="482" type="curve"/>
      <point x="454" y="482" type="line"/>
      <point x="454" y="423"/>
      <point x="430" y="379"/>
      <point x="391" y="379" type="curve" smooth="yes"/>
      <point x="202" y="379" type="line"/>
      <point x="201" y="339" type="line"/>
      <point x="264" y="339"/>
      <point x="366" y="339"/>
      <point x="391" y="339" type="curve" smooth="yes"/>
      <point x="431" y="339"/>
      <point x="455" y="275"/>
    </contour>
  </outline>
</glyph>
<glyph name="G" format="2">
  <advance width="865"/>
  <unicode hex="0047"/>
  <anchor x="433" y="700" name="top"/>
  <anchor x="433" y="0" name="bottom"/>
  <outline>
    <contour>
      <point x="479" y="-20" type="curve" smooth="yes"/>
      <point x="557" y="-20"/>
      <point x="671" y="13"/>
      <point x="754" y="59" type="curve"/>
      <point x="754" y="73" type="line"/>
      <point x="743" y="79"/>
      <point x="735" y="89"/>
      <point x="735" y="96" type="curve" smooth="yes"/>
      <point x="735" y="109"/>
      <point x="735" y="199"/>
      <point x="735" y="222" type="curve" smooth="yes"/>
      <point x="735" y="252"/>
      <point x="754" y="274"/>
      <point x="781" y="274" type="curve" smooth="yes"/>
      <point x="805" y="274" type="line"/>
      <point x="805" y="319" type="line"/>
      <point x="490" y="319" type="line"/>
      <point x="490" y="273" type="line"/>
      <point x="513" y="273"/>
      <point x="584" y="273"/>
      <point x="590" y="273" type="curve" smooth="yes"/>
      <point x="615" y="273"/>
      <point x="633" y="234"/>
      <point x="633" y="180" type="curve" smooth="yes"/>
      <point x="633" y="80"/>
      <point x="567" y="20"/>
      <point x="488" y="20" type="curve" smooth="yes"/>
      <point x="332" y="20"/>
      <point x="202" y="150"/>
      <point x="202" y="347" type="curve" smooth="yes"/>
      <point x="202" y="540"/>
      <point x="323" y="666"/>
      <point x="495" y="666" type="curve" smooth="yes"/>
      <point x="603" y="666"/>
      <point x="698" y="596"/>
      <point x="726" y="497" type="curve"/>
      <point x="747" y="497" type="line"/>
      <point x="747" y="694" type="line"/>
      <point x="679" y="694"/>
      <point x="569" y="712"/>
      <point x="477" y="712" type="curve" smooth="yes"/>
      <point x="237" y="712"/>
      <point x="67" y="561"/>
      <point x="67" y="348" type="curve" smooth="yes"/>
      <point x="67" y="132"/>
      <point x="238" y="-20"/>
    </contour>
  </outline>
</glyph>
<glyph name="H" format="2">
  <advance width="868"/>
  <unicode hex="0048"/>
  <anchor x="434" y="700" name="top"/>
  <anchor x="434" y="0" name="bottom"/>
  <anchor x="434" y="525" name="center"/>
  <anchor x="20" y="700" name="topleft"/>
  <outline>
    <contour>
      <point x="520" y="0" type="line"/>
      <point x="854" y="0" type="line"/>
      <point x="854" y="38" type="line"/>
      <point x="848" y="38"/>
      <point x="843" y="38"/>
      <point x="835" y="38" type="curve" smooth="yes"/>
      <point x="786" y="38"/>
      <point x="738" y="73"/>
      <point x="738" y="112" type="curve" smooth="yes"/>
      <point x="738" y="137"/>
      <point x="738" y="581"/>
      <point x="738" y="605" type="curve" smooth="yes"/>
      <point x="738" y="634"/>
      <point x="772" y="662"/>
      <point x="801" y="662" type="curve" smooth="yes"/>
      <point x="829" y="662" type="line"/>
      <point x="829" y="700" type="line"/>
      <point x="524" y="700" type="line"/>
      <point x="524" y="662" type="line"/>
      <point x="535" y="662"/>
      <point x="544" y="662"/>
      <point x="557" y="662" type="curve" smooth="yes"/>
      <point x="597" y="662"/>
      <point x="638" y="642"/>
      <point x="638" y="624" type="curve" smooth="yes"/>
      <point x="638" y="601"/>
      <point x="638" y="146"/>
      <point x="638" y="125" type="curve" smooth="yes"/>
      <point x="638" y="78"/>
      <point x="598" y="38"/>
      <point x="560" y="38" type="curve" smooth="yes"/>
      <point x="520" y="38" type="line"/>
    </contour>
    <contour>
      <point x="28" y="0" type="line"/>
      <point x="351" y="0" type="line"/>
      <point x="351" y="38" type="line"/>
      <point x="344" y="38"/>
      <point x="344" y="38"/>
      <point x="330" y="38" type="curve" smooth="yes"/>
      <point x="279" y="38"/>
      <point x="230" y="71"/>
      <point x="230" y="108" type="curve" smooth="yes"/>
      <point x="230" y="138"/>
      <point x="230" y="591"/>
      <point x="230" y="612" type="curve" smooth="yes"/>
      <point x="230" y="637"/>
      <point x="258" y="662"/>
      <point x="280" y="662" type="curve" smooth="yes"/>
      <point x="330" y="662" type="line"/>
      <point x="330" y="700" type="line"/>
      <point x="41" y="700" type="line"/>
      <point x="41" y="662" type="line"/>
      <point x="49" y="662"/>
      <point x="56" y="662"/>
      <point x="66" y="662" type="curve" smooth="yes"/>
      <point x="94" y="662"/>
      <point x="130" y="659"/>
      <point x="130" y="639" type="curve" smooth="yes"/>
      <point x="130" y="585"/>
      <point x="130" y="164"/>
      <point x="130" y="132" type="curve" smooth="yes"/>
      <point x="130" y="81"/>
      <point x="93" y="38"/>
      <point x="67" y="38" type="curve" smooth="yes"/>
      <point x="28" y="38" type="line"/>
    </contour>
    <contour>
      <point x="220" y="345" type="line"/>
      <point x="683" y="345" type="line"/>
      <point x="683" y="390" type="line"/>
      <point x="220" y="390" type="line"/>
    </contour>
  </outline>
</glyph>
<glyph name="I" format="2">
  <advance width="360"/>
  <unicode hex="0049"/>
  <anchor x="180" y="700" name="top"/>
  <anchor x="180" y="0" name="bottom"/>
  <anchor x="324" y="10" name="ogonek"/>
  <anchor x="20" y="700" name="topleft"/>
  <outline>
    <contour>
      <point x="38" y="0" type="line"/>
      <point x="301" y="0" type="line"/>
      <point x="301" y="38" type="line"/>
      <point x="294" y="38"/>
      <point x="284" y="38"/>
      <point x="270" y="38" type="curve" smooth="yes"/>
      <point x="248" y="38"/>
      <point x="230" y="61"/>
      <point x="230" y="108" type="curve" smooth="yes"/>
      <point x="230" y="138"/>
      <point x="230" y="591"/>
      <point x="230" y="612" type="curve" smooth="yes"/>
      <point x="230" y="637"/>
      <point x="252" y="662"/>
      <point x="280" y="662" type="curve" smooth="yes"/>
      <point x="323" y="662" type="line"/>
      <point x="323" y="700" type="line"/>
      <point x="36" y="700" type="line"/>
      <point x="36" y="662" type="line"/>
      <point x="44" y="662"/>
      <point x="51" y="662"/>
      <point x="61" y="662" type="curve" smooth="yes"/>
      <point x="100" y="662"/>
      <point x="130" y="652"/>
      <point x="130" y="639" type="curve" smooth="yes"/>
      <point x="130" y="585"/>
      <point x="130" y="164"/>
      <point x="130" y="132" type="curve" smooth="yes"/>
      <point x="130" y="71"/>
      <point x="98" y="38"/>
      <point x="57" y="38" type="curve" smooth="yes"/>
      <point x="38" y="38" type="line"/>
    </contour>
  </outline>
</glyph>
<glyph name="J" format="2">
  <advance width="342"/>
  <unicode hex="004A"/>
  <anchor x="171" y="700" name="top"/>
  <anchor x="171" y="0" name="bottom"/>
  <outline>
    <contour>
      <point x="49" y="-373" type="curve" smooth="yes"/>
      <point x="156" y="-373"/>
      <point x="230" y="-294"/>
      <point x="230" y="-183" type="curve" smooth="yes"/>
      <point x="230" y="-92"/>
      <point x="230" y="570"/>
      <point x="230" y="611" type="curve" smooth="yes"/>
      <point x="230" y="649"/>
      <point x="268" y="664"/>
      <point x="321" y="662" type="curve" smooth="yes"/>
      <point x="350" y="661" type="line"/>
      <point x="350" y="700" type="line"/>
      <point x="41" y="700" type="line"/>
      <point x="41" y="661" type="line"/>
      <point x="50" y="661"/>
      <point x="57" y="662"/>
      <point x="68" y="662" type="curve" smooth="yes"/>
      <point x="104" y="662"/>
      <point x="130" y="654"/>
      <point x="130" y="628" type="curve" smooth="yes"/>
      <point x="130" y="591"/>
      <point x="130" y="-207"/>
      <point x="130" y="-244" type="curve" smooth="yes"/>
      <point x="130" y="-296"/>
      <point x="98" y="-332"/>
      <point x="54" y="-332" type="curve" smooth="yes"/>
      <point x="4" y="-332"/>
      <point x="-31" y="-310"/>
      <point x="-31" y="-278" type="curve" smooth="yes"/>
      <point x="-31" y="-252"/>
      <point x="-17" y="-256"/>
      <point x="-17" y="-239" type="curve" smooth="yes"/>
      <point x="-17" y="-227"/>
      <point x="-34" y="-219"/>
      <point x="-58" y="-219" type="curve" smooth="yes"/>
      <point x="-86" y="-219"/>
      <point x="-105" y="-249"/>
      <point x="-105" y="-292" type="curve" smooth="yes"/>
      <point x="-105" y="-339"/>
      <point x="-41" y="-373"/>
    </contour>
  </outline>
</glyph>
<glyph name="K" format="2">
  <advance width="754"/>
  <unicode hex="004B"/>
  <anchor x="377" y="700" name="top"/>
  <anchor x="377" y="0" name="bottom"/>
  <outline>
    <contour>
      <point x="591" y="0" type="curve" smooth="yes"/>
      <point x="742" y="0" type="line"/>
      <point x="742" y="38" type="line"/>
      <point x="735" y="38" type="line" smooth="yes"/>
      <point x="707" y="38"/>
      <point x="673" y="58"/>
      <point x="630" y="99" type="curve" smooth="yes"/>
      <point x="321" y="400" type="line"/>
      <point x="402" y="479"/>
      <point x="482" y="569"/>
      <point x="502" y="589" type="curve" smooth="yes"/>
      <point x="534" y="622"/>
      <point x="581" y="662"/>
      <point x="624" y="662" type="curve" smooth="yes"/>
      <point x="671" y="662" type="line"/>
      <point x="671" y="700" type="line"/>
      <point x="406" y="700" type="line"/>
      <point x="406" y="662" type="line"/>
      <point x="434" y="662" type="line" smooth="yes"/>
      <point x="480" y="662"/>
      <point x="485" y="631"/>
      <point x="449" y="589" type="curve"/>
      <point x="228" y="358" type="line"/>
      <point x="228" y="468"/>
      <point x="231" y="575"/>
      <point x="231" y="594" type="curve" smooth="yes"/>
      <point x="231" y="640"/>
      <point x="252" y="662"/>
      <point x="278" y="662" type="curve" smooth="yes"/>
      <point x="312" y="662" type="line"/>
      <point x="312" y="700" type="line"/>
      <point x="60" y="700" type="line"/>
      <point x="60" y="662" type="line"/>
      <point x="88" y="662" type="line" smooth="yes"/>
      <point x="111" y="662"/>
      <point x="130" y="645"/>
      <point x="130" y="630" type="curve" smooth="yes"/>
      <point x="130" y="83" type="line" smooth="yes"/>
      <point x="130" y="51"/>
      <point x="112" y="38"/>
      <point x="91" y="38" type="curve" smooth="yes"/>
      <point x="75" y="38" type="line"/>
      <point x="75" y="0" type="line"/>
      <point x="327" y="0" type="line"/>
      <point x="327" y="38" type="line"/>
      <point x="296" y="38" type="line" smooth="yes"/>
      <point x="258" y="38"/>
      <point x="231" y="52"/>
      <point x="231" y="87" type="curve" smooth="yes"/>
      <point x="229" y="308" type="line"/>
      <point x="244" y="323" type="line"/>
      <point x="526" y="36" type="line" smooth="yes"/>
      <point x="547" y="15"/>
      <point x="575" y="0"/>
    </contour>
  </outline>
</glyph>
<glyph name="L" format="2">
  <advance width="715"/>
  <unicode hex="004C"/>
  <anchor x="358" y="700" name="top"/>
  <anchor x="358" y="0" name="bottom"/>
  <anchor x="358" y="350" name="center"/>
  <anchor x="695" y="700" name="topright"/>
  <outline>
    <contour>
      <point x="19" y="45" type="curve"/>
      <point x="19" y="0" type="line"/>
      <point x="608" y="0" type="line"/>
      <point x="676" y="162" type="line"/>
      <point x="634" y="169" type="line"/>
      <point x="603" y="91"/>
      <point x="550" y="45"/>
      <point x="490" y="45" type="curve" smooth="yes"/>
      <point x="421" y="45"/>
      <point x="327" y="45"/>
      <point x="304" y="45" type="curve" smooth="yes"/>
      <point x="264" y="45"/>
      <point x="230" y="74"/>
      <point x="230" y="130" type="curve" smooth="yes"/>
      <point x="230" y="179"/>
      <point x="230" y="558"/>
      <point x="230" y="608" type="curve" smooth="yes"/>
      <point x="230" y="645"/>
      <point x="283" y="662"/>
      <point x="352" y="662" type="curve" smooth="yes"/>
      <point x="372" y="662" type="line"/>
      <point x="372" y="700" type="line"/>
      <point x="17" y="700" type="line"/>
      <point x="17" y="662" type="line"/>
      <point x="43" y="662" type="line"/>
      <point x="92" y="662"/>
      <point x="130" y="636"/>
      <point x="130" y="584" type="curve" smooth="yes"/>
      <point x="130" y="533"/>
      <point x="130" y="166"/>
      <point x="130" y="125" type="curve" smooth="yes"/>
      <point x="130" y="72"/>
      <point x="108" y="45"/>
      <point x="82" y="45" type="curve" smooth="yes"/>
      <point x="64" y="45"/>
      <point x="33" y="45"/>
    </contour>
  </outline>
</glyph>
<glyph name="M" format="2">
  <advance width="946"/>
  <unicode hex="004D"/>
  <anchor x="473" y="700" name="top"/>
  <anchor x="473" y="0" name="bottom"/>
  <outline>
    <contour>
      <point x="203" y="538" type="curve" smooth="yes"/>
      <point x="422" y="0" type="line"/>
      <point x="445" y="0" type="line"/>
      <point x="734" y="640" type="line"/>
      <point x="717" y="700" type="line"/>
      <point x="469" y="150" type="line"/>
      <point x="245" y="700" type="line"/>
      <point x="25" y="700" type="line"/>
      <point x="25" y="662" type="line"/>
      <point x="46" y="662"/>
      <point x="75" y="662"/>
      <point x="99" y="662" type="curve" smooth="yes"/>
      <point x="131" y="662"/>
      <point x="174" y="609"/>
    </contour>
    <contour>
      <point x="24" y="0" type="line"/>
      <point x="283" y="0" type="line"/>
      <point x="283" y="37" type="line"/>
      <point x="273" y="37"/>
      <point x="265" y="37"/>
      <point x="254" y="37" type="curve" smooth="yes"/>
      <point x="202" y="37"/>
      <point x="166" y="54"/>
      <point x="166" y="92" type="curve" smooth="yes"/>
      <point x="166" y="656" type="line"/>
      <point x="130" y="656" type="line"/>
      <point x="130" y="484"/>
      <point x="130" y="187"/>
      <point x="130" y="141" type="curve" smooth="yes"/>
      <point x="130" y="74"/>
      <point x="110" y="37"/>
      <point x="68" y="37" type="curve" smooth="yes"/>
      <point x="24" y="37" type="line"/>
    </contour>
    <contour>
      <point x="614" y="0" type="line"/>
      <point x="923" y="0" type="line"/>
      <point x="923" y="38" type="line"/>
      <point x="912" y="38"/>
      <point x="904" y="38"/>
      <point x="891" y="38" type="curve" smooth="yes"/>
      <point x="846" y="38"/>
      <point x="816" y="53"/>
      <point x="816" y="88" type="curve" smooth="yes"/>
      <point x="816" y="126"/>
      <point x="816" y="580"/>
      <point x="816" y="611" type="curve" smooth="yes"/>
      <point x="816" y="640"/>
      <point x="834" y="662"/>
      <point x="860" y="662" type="curve" smooth="yes"/>
      <point x="901" y="662" type="line"/>
      <point x="901" y="700" type="line"/>
      <point x="716" y="700" type="line"/>
      <point x="716" y="498"/>
      <point x="716" y="114"/>
      <point x="716" y="91" type="curve" smooth="yes"/>
      <point x="716" y="54"/>
      <point x="708" y="38"/>
      <point x="695" y="38" type="curve" smooth="yes"/>
      <point x="616" y="38" type="line"/>
    </contour>
  </outline>
</glyph>
<glyph name="N" format="2">
  <advance width="846"/>
  <unicode hex="004E"/>
  <anchor x="423" y="700" name="top"/>
  <anchor x="423" y="0" name="bottom"/>
  <outline>
    <contour>
      <point x="123" y="634" type="curve" smooth="yes"/>
      <point x="701" y="-6" type="line"/>
      <point x="734" y="-6" type="line"/>
      <point x="734" y="189"/>
      <point x="734" y="535"/>
      <point x="734" y="579" type="curve" smooth="yes"/>
      <point x="734" y="633"/>
      <point x="770" y="662"/>
      <point x="822" y="662" type="curve" smooth="yes"/>
      <point x="861" y="662" type="line"/>
      <point x="861" y="700" type="line"/>
      <point x="543" y="700" type="line"/>
      <point x="543" y="662" type="line"/>
      <point x="554" y="662"/>
      <point x="595" y="662"/>
      <point x="609" y="662" type="curve" smooth="yes"/>
      <point x="652" y="662"/>
      <point x="682" y="640"/>
      <point x="682" y="594" type="curve" smooth="yes"/>
      <point x="682" y="164" type="line"/>
      <point x="198" y="700" type="line"/>
      <point x="8" y="697" type="line"/>
      <point x="8" y="659" type="line"/>
      <point x="21" y="659"/>
      <point x="32" y="659"/>
      <point x="46" y="659" type="curve" smooth="yes"/>
      <point x="72" y="659"/>
      <point x="104" y="654"/>
    </contour>
    <contour>
      <point x="38" y="0" type="line"/>
      <point x="329" y="0" type="line"/>
      <point x="329" y="37" type="line"/>
      <point x="269" y="37"/>
      <point x="265" y="37"/>
      <point x="254" y="37" type="curve" smooth="yes"/>
      <point x="202" y="37"/>
      <point x="166" y="64"/>
      <point x="166" y="92" type="curve" smooth="yes"/>
      <point x="166" y="656" type="line"/>
      <point x="130" y="656" type="line"/>
      <point x="130" y="484"/>
      <point x="130" y="187"/>
      <point x="130" y="141" type="curve" smooth="yes"/>
      <point x="130" y="74"/>
      <point x="110" y="37"/>
      <point x="68" y="37" type="curve" smooth="yes"/>
      <point x="38" y="37" type="line"/>
    </contour>
  </outline>
</glyph>
<glyph name="O" format="2">
  <advance width="908"/>
  <unicode hex="004F"/>
  <anchor x="454" y="0" name="bottom"/>
  <anchor x="454" y="350" name="center"/>
  <anchor x="817" y="10" name="ogonek"/>
  <anchor x="454" y="700" name="top"/>
  <anchor x="20" y="700" name="topleft"/>
  <anchor x="888" y="700" name="topright"/>
  <outline>
    <contour>
      <point x="447" y="-11" type="curve" smooth="yes"/>
      <point x="678" y="-11"/>
      <point x="841" y="145"/>
      <point x="841" y="365" type="curve" smooth="yes"/>
      <point x="841" y="572"/>
      <point x="679" y="719"/>
      <point x="451" y="719" type="curve" smooth="yes"/>
      <point x="226" y="719"/>
      <point x="67" y="572"/>
      <point x="67" y="365" type="curve" smooth="yes"/>
      <point x="67" y="145"/>
      <point x="224" y="-11"/>
    </contour>
    <contour>
      <point x="466" y="29" type="curve"/>
      <point x="311" y="29"/>
      <point x="201" y="179"/>
      <point x="201" y="405" type="curve" smooth="yes"/>
      <point x="201" y="571"/>
      <point x="301" y="679"/>
      <point x="443" y="679" type="curve" smooth="yes"/>
      <point x="598" y="679"/>
      <point x="708" y="539"/>
      <point x="708" y="326" type="curve" smooth="yes"/>
      <point x="708" y="146"/>
      <point x="608" y="29"/>
    </contour>
  </outline>
</glyph>
<glyph name="P" format="2">
  <advance width="610"/>
  <unicode hex="0050"/>
  <anchor x="305" y="700" name="top"/>
  <anchor x="305" y="0" name="bottom"/>
  <outline>
    <contour>
      <point x="47" y="0" type="line"/>
      <point x="343" y="0" type="line"/>
      <point x="343" y="38" type="line"/>
      <point x="336" y="38"/>
      <point x="313" y="38"/>
      <point x="303" y="38" type="curve" smooth="yes"/>
      <point x="263" y="38"/>
      <point x="230" y="57"/>
      <point x="230" y="98" type="curve" smooth="yes"/>
      <point x="230" y="148"/>
      <point x="230" y="616"/>
      <point x="230" y="632" type="curve" smooth="yes"/>
      <point x="230" y="647"/>
      <point x="255" y="657"/>
      <point x="283" y="657" type="curve" smooth="yes"/>
      <point x="387" y="657"/>
      <point x="461" y="595"/>
      <point x="461" y="486" type="curve" smooth="yes"/>
      <point x="461" y="382"/>
      <point x="399" y="319"/>
      <point x="311" y="319" type="curve"/>
      <point x="311" y="279" type="line"/>
      <point x="469" y="279"/>
      <point x="580" y="369"/>
      <point x="580" y="497" type="curve" smooth="yes"/>
      <point x="580" y="616"/>
      <point x="475" y="702"/>
      <point x="326" y="702" type="curve" smooth="yes"/>
      <point x="272" y="702"/>
      <point x="188" y="699"/>
      <point x="160" y="699" type="curve" smooth="yes"/>
      <point x="144" y="699"/>
      <point x="90" y="702"/>
      <point x="30" y="702" type="curve"/>
      <point x="30" y="662" type="line"/>
      <point x="85" y="662"/>
      <point x="130" y="653"/>
      <point x="130" y="625" type="curve" smooth="yes"/>
      <point x="130" y="579"/>
      <point x="130" y="81"/>
      <point x="130" y="63" type="curve" smooth="yes"/>
      <point x="130" y="43"/>
      <point x="107" y="38"/>
      <point x="84" y="38" type="curve" smooth="yes"/>
      <point x="47" y="38" type="line"/>
    </contour>
  </outline>
</glyph>
<glyph name="Q" format="2">
  <advance width="908"/>
  <unicode hex="0051"/>
  <anchor x="454" y="700" name="top"/>
  <anchor x="454" y="0" name="bottom"/>
  <outline>
    <contour>
      <point x="447" y="-18" type="curve" smooth="yes"/>
      <point x="678" y="-18"/>
      <point x="841" y="138"/>
      <point x="841" y="358" type="curve" smooth="yes"/>
      <point x="841" y="565"/>
      <point x="679" y="712"/>
      <point x="451" y="712" type="curve" smooth="yes"/>
      <point x="226" y="712"/>
      <point x="67" y="565"/>
      <point x="67" y="358" type="curve" smooth="yes"/>
      <point x="67" y="138"/>
      <point x="224" y="-18"/>
    </contour>
    <contour>
      <point x="1053" y="-175" type="curve" smooth="yes"/>
      <point x="1086" y="-175"/>
      <point x="1130" y="-171"/>
      <point x="1159" y="-165" type="curve"/>
      <point x="1159" y="-130" type="line"/>
      <point x="906" y="-143"/>
      <point x="668" y="-84"/>
      <point x="584" y="27" type="curve"/>
      <point x="530" y="8"/>
      <point x="481" y="-5"/>
      <point x="466" y="-5" type="curve" smooth="yes"/>
      <point x="435" y="-5"/>
      <point x="379" y="13"/>
      <point x="332" y="38" type="curve"/>
      <point x="338" y="8" type="line"/>
      <point x="505" y="-99"/>
      <point x="802" y="-175"/>
    </contour>
    <contour>
      <point x="466" y="22" type="curve" smooth="yes"/>
      <point x="311" y="22"/>
      <point x="201" y="172"/>
      <point x="201" y="398" type="curve" smooth="yes"/>
      <point x="201" y="564"/>
      <point x="301" y="672"/>
      <point x="443" y="672" type="curve" smooth="yes"/>
      <point x="598" y="672"/>
      <point x="708" y="532"/>
      <point x="708" y="319" type="curve" smooth="yes"/>
      <point x="708" y="139"/>
      <point x="608" y="22"/>
    </contour>
  </outline>
</glyph>
<glyph name="R" format="2">
  <advance width="768"/>
  <unicode hex="0052"/>
  <anchor x="384" y="700" name="top"/>
  <anchor x="384" y="0" name="bottom"/>
  <outline>
    <contour>
      <point x="596" y="-3" type="curve" smooth="yes"/>
      <point x="660" y="-3"/>
      <point x="726" y="-2"/>
      <point x="756" y="0" type="curve"/>
      <point x="756" y="39" type="line"/>
      <point x="755" y="38"/>
      <point x="738" y="38"/>
      <point x="716" y="38" type="curve" smooth="yes"/>
      <point x="690" y="38"/>
      <point x="634" y="56"/>
      <point x="614" y="81" type="curve" smooth="yes"/>
      <point x="484" y="241"/>
      <point x="380" y="345"/>
      <point x="363" y="362" type="curve"/>
      <point x="383" y="328" type="line"/>
      <point x="507" y="352"/>
      <point x="595" y="439"/>
      <point x="595" y="537" type="curve" smooth="yes"/>
      <point x="595" y="627"/>
      <point x="496" y="700"/>
      <point x="356" y="700" type="curve" smooth="yes"/>
      <point x="315" y="700"/>
      <point x="203" y="698"/>
      <point x="173" y="698" type="curve" smooth="yes"/>
      <point x="122" y="698"/>
      <point x="72" y="700"/>
      <point x="21" y="700" type="curve"/>
      <point x="21" y="662" type="line"/>
      <point x="28" y="662"/>
      <point x="27" y="662"/>
      <point x="42" y="662" type="curve" smooth="yes"/>
      <point x="89" y="662"/>
      <point x="130" y="639"/>
      <point x="130" y="593" type="curve" smooth="yes"/>
      <point x="130" y="539"/>
      <point x="130" y="103"/>
      <point x="130" y="73" type="curve" smooth="yes"/>
      <point x="130" y="47"/>
      <point x="103" y="38"/>
      <point x="75" y="38" type="curve" smooth="yes"/>
      <point x="43" y="38" type="line"/>
      <point x="43" y="0" type="line"/>
      <point x="323" y="0" type="line"/>
      <point x="323" y="38" type="line"/>
      <point x="309" y="38"/>
      <point x="290" y="38"/>
      <point x="260" y="38" type="curve" smooth="yes"/>
      <point x="246" y="38"/>
      <point x="230" y="56"/>
      <point x="230" y="72" type="curve" smooth="yes"/>
      <point x="230" y="116"/>
      <point x="230" y="588"/>
      <point x="230" y="625" type="curve" smooth="yes"/>
      <point x="230" y="638"/>
      <point x="254" y="655"/>
      <point x="279" y="655" type="curve" smooth="yes"/>
      <point x="303" y="655"/>
      <point x="319" y="655"/>
      <point x="342" y="655" type="curve" smooth="yes"/>
      <point x="418" y="655"/>
      <point x="471" y="601"/>
      <point x="471" y="517" type="curve" smooth="yes"/>
      <point x="471" y="426"/>
      <point x="396" y="372"/>
      <point x="290" y="372" type="curve" smooth="yes"/>
      <point x="176" y="372" type="line"/>
      <point x="176" y="327" type="line"/>
      <point x="281" y="327" type="line"/>
      <point x="358" y="219"/>
      <point x="445" y="114"/>
      <point x="491" y="60" type="curve" smooth="yes"/>
      <point x="522" y="23"/>
      <point x="562" y="-3"/>
    </contour>
  </outline>
</glyph>
<glyph name="S" format="2">
  <advance width="584"/>
  <unicode hex="0053"/>
  <anchor x="292" y="700" name="top"/>
  <anchor x="292" y="0" name="bottom"/>
  <outline>
    <contour>
      <point x="265" y="-16" type="curve" smooth="yes"/>
      <point x="413" y="-16"/>
      <point x="517" y="71"/>
      <point x="517" y="194" type="curve" smooth="yes"/>
      <point x="517" y="395"/>
      <point x="185" y="384"/>
      <point x="185" y="563" type="curve" smooth="yes"/>
      <point x="185" y="633"/>
      <point x="237" y="672"/>
      <point x="303" y="672" type="curve" smooth="yes"/>
      <point x="380" y="672"/>
      <point x="436" y="618"/>
      <point x="453" y="527" type="curve"/>
      <point x="479" y="527" type="line"/>
      <point x="479" y="704" type="line"/>
      <point x="454" y="704" type="line"/>
      <point x="437" y="673" type="line"/>
      <point x="409" y="696"/>
      <point x="355" y="712"/>
      <point x="305" y="712" type="curve" smooth="yes"/>
      <point x="174" y="712"/>
      <point x="81" y="634"/>
      <point x="81" y="524" type="curve" smooth="yes"/>
      <point x="81" y="329"/>
      <point x="412" y="334"/>
      <point x="412" y="148" type="curve" smooth="yes"/>
      <point x="412" y="70"/>
      <point x="351" y="24"/>
      <point x="269" y="24" type="curve" smooth="yes"/>
      <point x="167" y="24"/>
      <point x="103" y="95"/>
      <point x="101" y="209" type="curve"/>
      <point x="58" y="209" type="line"/>
      <point x="58" y="80" type="line"/>
      <point x="99" y="32"/>
      <point x="185" y="-16"/>
    </contour>
  </outline>
</glyph>
<glyph name="T" format="2">
  <advance width="704"/>
  <unicode hex="0054"/>
  <anchor x="352" y="700" name="top"/>
  <anchor x="352" y="0" name="bottom"/>
  <anchor x="352" y="350" name="center"/>
  <outline>
    <contour>
      <point x="216" y="0" type="line"/>
      <point x="517" y="0" type="line"/>
      <point x="517" y="38" type="line"/>
      <point x="506" y="38"/>
      <point x="498" y="38"/>
      <point x="484" y="38" type="curve" smooth="yes"/>
      <point x="470" y="38"/>
      <point x="408" y="42"/>
      <point x="408" y="66" type="curve" smooth="yes"/>
      <point x="408" y="695" type="line"/>
      <point x="308" y="695" type="line"/>
      <point x="308" y="497"/>
      <point x="308" y="104"/>
      <point x="308" y="95" type="curve" smooth="yes"/>
      <point x="308" y="68"/>
      <point x="281" y="34"/>
      <point x="244" y="34" type="curve" smooth="yes"/>
      <point x="216" y="34" type="line"/>
    </contour>
    <contour>
      <point x="663" y="546" type="line"/>
      <point x="692" y="552" type="line"/>
      <point x="676" y="713" type="line"/>
      <point x="632" y="700" type="line"/>
      <point x="65" y="700" type="line"/>
      <point x="30" y="711" type="line"/>
      <point x="12" y="562" type="line"/>
      <point x="38" y="556" type="line"/>
      <point x="85" y="655" type="line"/>
      <point x="611" y="655" type="line"/>
    </contour>
  </outline>
</glyph>
<glyph name="U" format="2">
  <advance width="832"/>
  <unicode hex="0055"/>
  <anchor x="416" y="0" name="bottom"/>
  <anchor x="749" y="10" name="ogonek"/>
  <anchor x="416" y="700" name="top"/>
  <anchor x="812" y="700" name="topright"/>
  <outline>
    <contour>
      <point x="408" y="-11" type="curve" smooth="yes"/>
      <point x="605" y="-11"/>
      <point x="745" y="100"/>
      <point x="745" y="256" type="curve" smooth="yes"/>
      <point x="745" y="457"/>
      <point x="745" y="578"/>
      <point x="745" y="611" type="curve" smooth="yes"/>
      <point x="745" y="642"/>
      <point x="765" y="661"/>
      <point x="798" y="661" type="curve" smooth="yes"/>
      <point x="812" y="661" type="line"/>
      <point x="812" y="699" type="line"/>
      <point x="532" y="699" type="line"/>
      <point x="532" y="661" type="line"/>
      <point x="569" y="661"/>
      <point x="630" y="661"/>
      <point x="643" y="661" type="curve" smooth="yes"/>
      <point x="673" y="661"/>
      <point x="685" y="634"/>
      <point x="685" y="603" type="curve" smooth="yes"/>
      <point x="685" y="578"/>
      <point x="685" y="266"/>
      <point x="685" y="251" type="curve" smooth="yes"/>
      <point x="685" y="128"/>
      <point x="576" y="41"/>
      <point x="422" y="41" type="curve" smooth="yes"/>
      <point x="292" y="41"/>
      <point x="200" y="108"/>
      <point x="200" y="203" type="curve" smooth="yes"/>
      <point x="200" y="269"/>
      <point x="200" y="606"/>
      <point x="200" y="626" type="curve" smooth="yes"/>
      <point x="200" y="656"/>
      <point x="235" y="661"/>
      <point x="265" y="661" type="curve" smooth="yes"/>
      <point x="281" y="661" type="line"/>
      <point x="281" y="699" type="line"/>
      <point x="41" y="699" type="line"/>
      <point x="41" y="661" type="line"/>
      <point x="48" y="661"/>
      <point x="54" y="661"/>
      <point x="63" y="661" type="curve" smooth="yes"/>
      <point x="81" y="661"/>
      <point x="100" y="631"/>
      <point x="100" y="570" type="curve" smooth="yes"/>
      <point x="100" y="514"/>
      <point x="100" y="254"/>
      <point x="100" y="202" type="curve" smooth="yes"/>
      <point x="100" y="77"/>
      <point x="228" y="-11"/>
    </contour>
  </outline>
</glyph>
<glyph name="V" format="2">
  <advance width="729"/>
  <unicode hex="0056"/>
  <anchor x="365" y="700" name="top"/>
  <anchor x="365" y="0" name="bottom"/>
  <outline>
    <contour>
      <point x="91" y="627" type="curve"/>
      <point x="357" y="-12" type="line"/>
      <point x="391" y="0" type="line"/>
      <point x="620" y="641" type="line" smooth="yes"/>
      <point x="626" y="657"/>
      <point x="649" y="659"/>
      <point x="675" y="659" type="curve" smooth="yes"/>
      <point x="717" y="659" type="line"/>
      <point x="717" y="700" type="line"/>
      <point x="487" y="700" type="line"/>
      <point x="487" y="659" type="line"/>
      <point x="541" y="659" type="line" smooth="yes"/>
      <point x="565" y="659"/>
      <point x="576" y="658"/>
      <point x="570" y="641" type="curve" smooth="yes"/>
      <point x="395" y="150" type="line"/>
      <point x="193" y="621" type="line" smooth="yes"/>
      <point x="180" y="651"/>
      <point x="200" y="662"/>
      <point x="230" y="662" type="curve" smooth="yes"/>
      <point x="282" y="662" type="line"/>
      <point x="282" y="700" type="line"/>
      <point x="12" y="700" type="line"/>
      <point x="12" y="662" type="line"/>
      <point x="46" y="662" type="line" smooth="yes"/>
      <point x="60" y="662"/>
      <point x="79" y="653"/>
    </contour>
  </outline>
</glyph>
<glyph name="W" format="2">
  <advance width="1039"/>
  <unicode hex="0057"/>
  <anchor x="520" y="700" name="top"/>
  <anchor x="520" y="0" name="bottom"/>
  <outline>
    <contour>
      <point x="481" y="627" type="curve"/>
      <point x="687" y="-12" type="line"/>
      <point x="721" y="0" type="line"/>
      <point x="930" y="641" type="line" smooth="yes"/>
      <point x="932" y="648"/>
      <point x="959" y="659"/>
      <point x="985" y="659" type="curve" smooth="yes"/>
      <point x="1027" y="659" type="line"/>
      <point x="1027" y="700" type="line"/>
      <point x="840" y="700" type="line"/>
      <point x="840" y="659" type="line"/>
      <point x="851" y="659" type="line" smooth="yes"/>
      <point x="875" y="659"/>
      <point x="883" y="649"/>
      <point x="880" y="641" type="curve" smooth="yes"/>
      <point x="735" y="187" type="line"/>
      <point x="590" y="616" type="line" smooth="yes"/>
      <point x="580" y="646"/>
      <point x="590" y="662"/>
      <point x="620" y="662" type="curve" smooth="yes"/>
      <point x="652" y="662" type="line"/>
      <point x="652" y="700" type="line"/>
      <point x="402" y="700" type="line"/>
      <point x="402" y="662" type="line"/>
      <point x="436" y="662" type="line" smooth="yes"/>
      <point x="450" y="662"/>
      <point x="469" y="653"/>
    </contour>
    <contour>
      <point x="91" y="627" type="curve"/>
      <point x="297" y="-12" type="line"/>
      <point x="331" y="0" type="line"/>
      <point x="571" y="662" type="line"/>
      <point x="521" y="662" type="line"/>
      <point x="346" y="184" type="line"/>
      <point x="198" y="621" type="line" smooth="yes"/>
      <point x="188" y="651"/>
      <point x="200" y="662"/>
      <point x="230" y="662" type="curve" smooth="yes"/>
      <point x="262" y="662" type="line"/>
      <point x="262" y="700" type="line"/>
      <point x="12" y="700" type="line"/>
      <point x="12" y="662" type="line"/>
      <point x="46" y="662" type="line" smooth="yes"/>
      <point x="60" y="662"/>
      <point x="79" y="653"/>
    </contour>
  </outline>
</glyph>
<glyph name="X" format="2">
  <advance width="750"/>
  <unicode hex="0058"/>
  <anchor x="375" y="700" name="top"/>
  <anchor x="375" y="0" name="bottom"/>
  <outline>
    <contour>
      <point x="425" y="0" type="line"/>
      <point x="725" y="0" type="line"/>
      <point x="725" y="38" type="line"/>
      <point x="695" y="38" type="line"/>
      <point x="678" y="38"/>
      <point x="641" y="59"/>
      <point x="621" y="89" type="curve" smooth="yes"/>
      <point x="504" y="269"/>
      <point x="346" y="483"/>
      <point x="235" y="632" type="curve" smooth="yes"/>
      <point x="222" y="650"/>
      <point x="233" y="662"/>
      <point x="260" y="662" type="curve" smooth="yes"/>
      <point x="322" y="662" type="line"/>
      <point x="322" y="700" type="line"/>
      <point x="42" y="700" type="line"/>
      <point x="42" y="662" type="line"/>
      <point x="54" y="662" type="line"/>
      <point x="75" y="662"/>
      <point x="107" y="652"/>
      <point x="116" y="639" type="curve" smooth="yes"/>
      <point x="149" y="591"/>
      <point x="469" y="132"/>
      <point x="480" y="116" type="curve" smooth="yes"/>
      <point x="514" y="64"/>
      <point x="503" y="38"/>
      <point x="469" y="38" type="curve" smooth="yes"/>
      <point x="425" y="38" type="line"/>
    </contour>
    <contour>
      <point x="21" y="38" type="curve"/>
      <point x="21" y="0" type="line"/>
      <point x="290" y="0" type="line"/>
      <point x="290" y="38" type="line"/>
      <point x="281" y="38"/>
      <point x="282" y="38"/>
      <point x="263" y="38" type="curve" smooth="yes"/>
      <point x="203" y="38"/>
      <point x="180" y="59"/>
      <point x="208" y="104" type="curve" smooth="yes"/>
      <point x="215" y="115"/>
      <point x="297" y="210"/>
      <point x="402" y="341" type="curve"/>
      <point x="372" y="374" type="line"/>
      <point x="310" y="295"/>
      <point x="214" y="176"/>
      <point x="134" y="80" type="curve" smooth="yes"/>
      <point x="113" y="55"/>
      <point x="66" y="38"/>
    </contour>
    <contour>
      <point x="372" y="364" type="curve"/>
      <point x="402" y="331" type="line"/>
      <point x="646" y="641" type="line"/>
      <point x="657" y="655"/>
      <point x="673" y="662"/>
      <point x="688" y="662" type="curve" smooth="yes"/>
      <point x="729" y="662" type="line"/>
      <point x="729" y="700" type="line"/>
      <point x="458" y="700" type="line"/>
      <point x="458" y="662" type="line"/>
      <point x="472" y="662"/>
      <point x="483" y="662"/>
      <point x="533" y="662" type="curve" smooth="yes"/>
      <point x="568" y="662"/>
      <point x="577" y="633"/>
      <point x="539" y="579" type="curve" smooth="yes"/>
      <point x="505" y="530"/>
      <point x="492" y="525"/>
    </contour>
  </outline>
</glyph>
<glyph name="Y" format="2">
  <advance width="651"/>
  <unicode hex="0059"/>
  <anchor x="326" y="700" name="top"/>
  <anchor x="326" y="0" name="bottom"/>
  <anchor x="20" y="700" name="topleft"/>
  <outline>
    <contour>
      <point x="92" y="649" type="curve"/>
      <point x="274" y="292" type="line"/>
      <point x="368" y="319" type="line"/>
      <point x="205" y="632" type="line" smooth="yes"/>
      <point x="192" y="660"/>
      <point x="205" y="662"/>
      <point x="233" y="662" type="curve" smooth="yes"/>
      <point x="322" y="662" type="line"/>
      <point x="322" y="700" type="line"/>
      <point x="12" y="700" type="line"/>
      <point x="12" y="662" type="line"/>
      <point x="54" y="662" type="line" smooth="yes"/>
      <point x="65" y="662"/>
      <point x="83" y="662"/>
    </contour>
    <contour>
      <point x="176" y="0" type="line"/>
      <point x="477" y="0" type="line"/>
      <point x="477" y="38" type="line"/>
      <point x="444" y="38" type="line" smooth="yes"/>
      <point x="430" y="38"/>
      <point x="368" y="42"/>
      <point x="368" y="66" type="curve" smooth="yes"/>
      <point x="368" y="314" type="line"/>
      <point x="268" y="314" type="line"/>
      <point x="268" y="95" type="line" smooth="yes"/>
      <point x="268" y="68"/>
      <point x="241" y="34"/>
      <point x="204" y="34" type="curve" smooth="yes"/>
      <point x="176" y="34" type="line"/>
    </contour>
    <contour>
      <point x="493" y="630" type="curve" smooth="yes"/>
      <point x="315" y="314" type="line"/>
      <point x="368" y="314" type="line"/>
      <point x="556" y="641" type="line"/>
      <point x="566" y="653"/>
      <point x="583" y="662"/>
      <point x="598" y="662" type="curve" smooth="yes"/>
      <point x="639" y="662" type="line"/>
      <point x="639" y="700" type="line"/>
      <point x="428" y="700" type="line"/>
      <point x="428" y="662" type="line"/>
      <point x="483" y="662" type="line" smooth="yes"/>
      <point x="501" y="662"/>
      <point x="507" y="655"/>
    </contour>
  </outline>
</glyph>
<glyph name="Z" format="2">
  <advance width="699"/>
  <unicode hex="005A"/>
  <anchor x="350" y="700" name="top"/>
  <anchor x="350" y="0" name="bottom"/>
  <anchor x="350" y="350" name="center"/>
  <outline>
    <contour>
      <point x="48" y="0" type="curve"/>
      <point x="298" y="0" type="line"/>
      <point x="298" y="45" type="line"/>
      <point x="229" y="45" type="line" smooth="yes"/>
      <point x="205" y="45"/>
      <point x="199" y="52"/>
      <point x="215" y="77" type="curve" smooth="yes"/>
      <point x="608" y="649" type="line"/>
      <point x="608" y="700" type="line"/>
      <point x="137" y="700" type="line"/>
      <point x="79" y="482" type="line"/>
      <point x="124" y="476" type="line"/>
      <point x="171" y="587"/>
      <point x="216" y="655"/>
      <point x="245" y="655" type="curve" smooth="yes"/>
      <point x="463" y="655" type="line" smooth="yes"/>
      <point x="487" y="655"/>
      <point x="493" y="650"/>
      <point x="477" y="628" type="curve" smooth="yes"/>
      <point x="394" y="516"/>
      <point x="217" y="256"/>
    </contour>
    <contour>
      <point x="85" y="0" type="line"/>
      <point x="593" y="0" type="line"/>
      <point x="641" y="212" type="line"/>
      <point x="600" y="219" type="line"/>
      <point x="569" y="141"/>
      <point x="516" y="45"/>
      <point x="456" y="45" type="curve" smooth="yes"/>
      <point x="85" y="45" type="line"/>
    </contour>
  </outline>
</glyph>
<glyph name="b" format="2">
  <advance width="553"/>
  <unicode hex="0062"/>
  <anchor x="277" y="445" name="top"/>
  <anchor x="277" y="0" name="bottom"/>
  <anchor x="138" y="560" name="center"/>
  <outline>
    <contour>
      <point x="245" y="-12" type="curve" smooth="yes"/>
      <point x="403" y="-12"/>
      <point x="514" y="107"/>
      <point x="514" y="261" type="curve" smooth="yes"/>
      <point x="514" y="376"/>
      <point x="424" y="458"/>
      <point x="296" y="458" type="curve" smooth="yes"/>
      <point x="240" y="458"/>
      <point x="171" y="440"/>
      <point x="129" y="414" type="curve"/>
      <point x="137" y="372" type="line"/>
      <point x="171" y="394"/>
      <point x="221" y="410"/>
      <point x="256" y="410" type="curve" smooth="yes"/>
      <point x="348" y="410"/>
      <point x="416" y="345"/>
      <point x="416" y="237" type="curve" smooth="yes"/>
      <point x="416" y="120"/>
      <point x="359" y="38"/>
      <point x="283" y="38" type="curve" smooth="yes"/>
      <point x="216" y="38"/>
      <point x="151" y="80"/>
      <point x="127" y="139" type="curve"/>
      <point x="77" y="46" type="line"/>
      <point x="105" y="12"/>
      <point x="175" y="-12"/>
    </contour>
    <contour>
      <point x="77" y="46" type="curve"/>
      <point x="166" y="26" type="line"/>
      <point x="166" y="636" type="line"/>
      <point x="171" y="700" type="line"/>
      <point x="163" y="708" type="line"/>
      <point x="116" y="690"/>
      <point x="70" y="675"/>
      <point x="23" y="663" type="curve"/>
      <point x="23" y="637" type="line"/>
      <point x="60" y="637"/>
      <point x="85" y="618"/>
      <point x="85" y="592" type="curve"/>
      <point x="89" y="451"/>
      <point x="85" y="310"/>
      <point x="85" y="149" type="curve"/>
      <point x="85" y="100"/>
      <point x="82" y="58"/>
    </contour>
  </outline>
</glyph>
<glyph name="c" format="2">
  <advance width="434"/>
  <unicode hex="0063"/>
  <anchor x="217" y="445" name="top"/>
  <anchor x="217" y="0" name="bottom"/>
  <outline>
    <contour>
      <point x="227" y="-12" type="curve"/>
      <point x="289" y="-12"/>
      <point x="370" y="30"/>
      <point x="422" y="90" type="curve"/>
      <point x="402" y="120" type="line"/>
      <point x="370" y="87"/>
      <point x="319" y="64"/>
      <point x="278" y="64" type="curve" smooth="yes"/>
      <point x="184" y="64"/>
      <point x="118" y="128"/>
      <point x="118" y="233" type="curve" smooth="yes"/>
      <point x="118" y="343"/>
      <point x="168" y="409"/>
      <point x="238" y="409" type="curve" smooth="yes"/>
      <point x="321" y="409"/>
      <point x="298" y="350"/>
      <point x="343" y="350" type="curve" smooth="yes"/>
      <point x="374" y="350"/>
      <point x="396" y="365"/>
      <point x="396" y="386" type="curve" smooth="yes"/>
      <point x="396" y="428"/>
      <point x="351" y="457"/>
      <point x="287" y="457" type="curve" smooth="yes"/>
      <point x="142" y="457"/>
      <point x="39" y="348"/>
      <point x="39" y="192" type="curve"/>
      <point x="39" y="73"/>
      <point x="117" y="-12"/>
    </contour>
  </outline>
</glyph>
<glyph name="f" format="2">
  <advance width="315"/>
  <unicode hex="0066"/>
  <anchor x="158" y="700" name="top"/>
  <anchor x="158" y="0" name="bottom"/>
  <outline>
    <contour>
      <point x="10" y="0" type="line"/>
      <point x="266" y="0" type="line"/>
      <point x="266" y="38" type="line"/>
      <point x="257" y="38"/>
      <point x="256" y="38"/>
      <point x="219" y="38" type="curve" smooth="yes"/>
      <point x="197" y="38"/>
      <point x="184" y="51"/>
      <point x="184" y="69" type="curve" smooth="yes"/>
      <point x="184" y="100"/>
      <point x="184" y="507"/>
      <point x="184" y="541" type="curve" smooth="yes"/>
      <point x="184" y="614"/>
      <point x="201" y="662"/>
      <point x="229" y="686" type="curve" smooth="yes"/>
      <point x="243" y="698"/>
      <point x="268" y="706"/>
      <point x="290" y="706" type="curve" smooth="yes"/>
      <point x="342" y="706"/>
      <point x="321" y="650"/>
      <point x="369" y="650" type="curve" smooth="yes"/>
      <point x="394" y="650"/>
      <point x="445" y="676"/>
      <point x="445" y="713" type="curve" smooth="yes"/>
      <point x="445" y="752"/>
      <point x="409" y="779"/>
      <point x="357" y="779" type="curve" smooth="yes"/>
      <point x="316" y="779"/>
      <point x="248" y="746"/>
      <point x="193" y="699" type="curve" smooth="yes"/>
      <point x="140" y="655"/>
      <point x="103" y="592"/>
      <point x="103" y="522" type="curve" smooth="yes"/>
      <point x="103" y="459"/>
      <point x="72" y="414"/>
      <point x="27" y="414" type="curve" smooth="yes"/>
      <point x="15" y="414" type="line"/>
      <point x="15" y="376" type="line"/>
      <point x="100" y="376" type="line"/>
      <point x="105" y="276"/>
      <point x="105" y="187"/>
      <point x="100" y="87" type="curve"/>
      <point x="100" y="58"/>
      <point x="81" y="38"/>
      <point x="55" y="38" type="curve" smooth="yes"/>
      <point x="10" y="38" type="line"/>
    </contour>
    <contour>
      <point x="170" y="376" type="line"/>
      <point x="303" y="376" type="line"/>
      <point x="303" y="445" type="line"/>
      <point x="170" y="445" type="line"/>
    </contour>
  </outline>
</glyph>
<glyph name="g" format="2">
  <advance width="513"/>
  <unicode hex="0067"/>
  <anchor x="257" y="445" name="top"/>
  <anchor x="257" y="-150" name="bottom"/>
  <outline>
    <contour>
      <point x="239" y="-316" type="curve" smooth="yes"/>
      <point x="390" y="-316"/>
      <point x="497" y="-220"/>
      <point x="497" y="-84" type="curve" smooth="yes"/>
      <point x="497" y="-2"/>
      <point x="424" y="56"/>
      <point x="320" y="56" type="curve" smooth="yes"/>
      <point x="255" y="56"/>
      <point x="198" y="56"/>
      <point x="178" y="56" type="curve" smooth="yes"/>
      <point x="144" y="56"/>
      <point x="120" y="80"/>
      <point x="120" y="100" type="curve" smooth="yes"/>
      <point x="120" y="114"/>
      <point x="146" y="136"/>
      <point x="182" y="152" type="curve"/>
      <point x="157" y="174" type="line"/>
      <point x="93" y="144"/>
      <point x="48" y="99"/>
      <point x="48" y="66" type="curve" smooth="yes"/>
      <point x="48" y="22"/>
      <point x="82" y="-19"/>
      <point x="129" y="-19" type="curve" smooth="yes"/>
      <point x="188" y="-19"/>
      <point x="310" y="-19"/>
      <point x="337" y="-19" type="curve" smooth="yes"/>
      <point x="390" y="-19"/>
      <point x="423" y="-50"/>
      <point x="423" y="-94" type="curve" smooth="yes"/>
      <point x="423" y="-200"/>
      <point x="357" y="-275"/>
      <point x="257" y="-275" type="curve" smooth="yes"/>
      <point x="166" y="-275"/>
      <point x="106" y="-222"/>
      <point x="106" y="-147" type="curve" smooth="yes"/>
      <point x="106" y="-98"/>
      <point x="152" y="-38"/>
      <point x="225" y="-1" type="curve"/>
      <point x="173" y="-1" type="line"/>
      <point x="173" y="7" type="line"/>
      <point x="83" y="-32"/>
      <point x="19" y="-107"/>
      <point x="19" y="-174" type="curve" smooth="yes"/>
      <point x="19" y="-257"/>
      <point x="110" y="-316"/>
    </contour>
    <contour>
      <point x="256" y="132" type="curve" smooth="yes"/>
      <point x="355" y="132"/>
      <point x="424" y="200"/>
      <point x="424" y="295" type="curve" smooth="yes"/>
      <point x="424" y="389"/>
      <point x="351" y="456"/>
      <point x="247" y="456" type="curve" smooth="yes"/>
      <point x="146" y="456"/>
      <point x="74" y="384"/>
      <point x="74" y="282" type="curve" smooth="yes"/>
      <point x="74" y="194"/>
      <point x="149" y="132"/>
    </contour>
    <contour>
      <point x="258" y="169" type="curve" smooth="yes"/>
      <point x="201" y="169"/>
      <point x="160" y="226"/>
      <point x="160" y="320" type="curve" smooth="yes"/>
      <point x="160" y="384"/>
      <point x="193" y="418"/>
      <point x="240" y="418" type="curve" smooth="yes"/>
      <point x="295" y="418"/>
      <point x="334" y="365"/>
      <point x="334" y="275" type="curve" smooth="yes"/>
      <point x="334" y="207"/>
      <point x="302" y="169"/>
    </contour>
    <contour>
      <point x="494" y="344" type="line"/>
      <point x="501" y="414" type="line"/>
      <point x="480" y="414"/>
      <point x="385" y="385"/>
      <point x="361" y="385" type="curve"/>
      <point x="369" y="345" type="line"/>
    </contour>
  </outline>
</glyph>
<glyph name="h" format="2">
  <advance width="563"/>
  <unicode hex="0068"/>
  <anchor x="282" y="700" name="top"/>
  <anchor x="282" y="0" name="bottom"/>
  <anchor x="141" y="560" name="center"/>
  <outline>
    <contour>
      <point x="313" y="1" type="line"/>
      <point x="555" y="1" type="line"/>
      <point x="555" y="41" type="line"/>
      <point x="545" y="41"/>
      <point x="500" y="41"/>
      <point x="494" y="41" type="curve" smooth="yes"/>
      <point x="480" y="41"/>
      <point x="470" y="58"/>
      <point x="470" y="73" type="curve" smooth="yes"/>
      <point x="470" y="117"/>
      <point x="467" y="307"/>
      <point x="467" y="352" type="curve" smooth="yes"/>
      <point x="467" y="413"/>
      <point x="416" y="456"/>
      <point x="343" y="456" type="curve" smooth="yes"/>
      <point x="279" y="456"/>
      <point x="193" y="417"/>
      <point x="135" y="362" type="curve"/>
      <point x="146" y="327" type="line"/>
      <point x="180" y="360"/>
      <point x="240" y="383"/>
      <point x="292" y="383" type="curve" smooth="yes"/>
      <point x="346" y="383"/>
      <point x="385" y="362"/>
      <point x="385" y="319" type="curve"/>
      <point x="390" y="244"/>
      <point x="390" y="179"/>
      <point x="385" y="104" type="curve"/>
      <point x="385" y="66"/>
      <point x="370" y="36"/>
      <point x="350" y="36" type="curve" smooth="yes"/>
      <point x="313" y="36" type="line"/>
    </contour>
    <contour>
      <point x="24" y="0" type="line"/>
      <point x="254" y="0" type="line"/>
      <point x="254" y="36" type="line"/>
      <point x="241" y="36"/>
      <point x="225" y="36"/>
      <point x="216" y="36" type="curve" smooth="yes"/>
      <point x="192" y="36"/>
      <point x="174" y="56"/>
      <point x="174" y="84" type="curve" smooth="yes"/>
      <point x="177" y="632" type="line"/>
      <point x="180" y="700" type="line"/>
      <point x="175" y="708" type="line"/>
      <point x="132" y="691"/>
      <point x="72" y="673"/>
      <point x="32" y="663" type="curve"/>
      <point x="32" y="637" type="line"/>
      <point x="68" y="637"/>
      <point x="92" y="619"/>
      <point x="92" y="594" type="curve"/>
      <point x="97" y="420"/>
      <point x="97" y="266"/>
      <point x="92" y="92" type="curve"/>
      <point x="92" y="59"/>
      <point x="77" y="36"/>
      <point x="54" y="36" type="curve" smooth="yes"/>
      <point x="24" y="36" type="line"/>
    </contour>
  </outline>
</glyph>
<glyph name="i" format="2">
  <advance width="276"/>
  <unicode hex="0069"/>
  <anchor x="138" y="0" name="bottom"/>
  <outline>
    <contour>
      <point x="44" y="0" type="line"/>
      <point x="252" y="0" type="line"/>
      <point x="252" y="38" type="line"/>
      <point x="244" y="38"/>
      <point x="214" y="38"/>
      <point x="207" y="38" type="curve" smooth="yes"/>
      <point x="191" y="38"/>
      <point x="182" y="50"/>
      <point x="182" y="67" type="curve"/>
      <point x="182" y="362" type="line"/>
      <point x="183" y="445" type="line"/>
      <point x="174" y="461" type="line"/>
      <point x="137" y="438"/>
      <point x="83" y="415"/>
      <point x="42" y="406" type="curve"/>
      <point x="42" y="378" type="line"/>
      <point x="75" y="378"/>
      <point x="99" y="356"/>
      <point x="99" y="324" type="curve"/>
      <point x="104" y="234"/>
      <point x="104" y="153"/>
      <point x="99" y="63" type="curve"/>
      <point x="99" y="48"/>
      <point x="84" y="38"/>
      <point x="63" y="38" type="curve" smooth="yes"/>
      <point x="44" y="38" type="line"/>
    </contour>
    <contour>
      <point x="139" y="589" type="curve" smooth="yes"/>
      <point x="171" y="589"/>
      <point x="195" y="611"/>
      <point x="195" y="641" type="curve" smooth="yes"/>
      <point x="195" y="671"/>
      <point x="171" y="693"/>
      <point x="139" y="693" type="curve" smooth="yes"/>
      <point x="107" y="693"/>
      <point x="83" y="671"/>
      <point x="83" y="641" type="curve" smooth="yes"/>
      <point x="83" y="611"/>
      <point x="107" y="589"/>
    </contour>
  </outline>
</glyph>
<glyph name="j" format="2">
  <advance width="267"/>
  <unicode hex="006A"/>
  <outline>
    <contour>
      <point x="-25" y="-223" type="curve"/>
      <point x="0" y="-262" type="line"/>
      <point x="105" y="-180"/>
      <point x="182" y="-76"/>
      <point x="182" y="-11" type="curve" smooth="yes"/>
      <point x="182" y="36"/>
      <point x="182" y="382"/>
      <point x="182" y="400" type="curve"/>
      <point x="182" y="445" type="line"/>
      <point x="179" y="453" type="line"/>
      <point x="41" y="415" type="line"/>
      <point x="44" y="392" type="line"/>
      <point x="76" y="392"/>
      <point x="99" y="375"/>
      <point x="99" y="351" type="curve"/>
      <point x="104" y="224"/>
      <point x="104" y="108"/>
      <point x="99" y="-19" type="curve"/>
      <point x="99" y="-77"/>
      <point x="48" y="-162"/>
    </contour>
    <contour>
      <point x="133" y="585" type="curve" smooth="yes"/>
      <point x="163" y="585"/>
      <point x="188" y="609"/>
      <point x="188" y="638" type="curve" smooth="yes"/>
      <point x="188" y="666"/>
      <point x="163" y="690"/>
      <point x="133" y="690" type="curve" smooth="yes"/>
      <point x="102" y="690"/>
      <point x="77" y="666"/>
      <point x="77" y="638" type="curve" smooth="yes"/>
      <point x="77" y="609"/>
      <point x="102" y="585"/>
    </contour>
  </outline>
</glyph>
<glyph name="k" format="2">
  <advance width="527"/>
  <unicode hex="006B"/>
  <anchor x="264" y="700" name="top"/>
  <anchor x="264" y="0" name="bottom"/>
  <outline>
    <contour>
      <point x="31" y="0" type="line"/>
      <point x="261" y="0" type="line"/>
      <point x="261" y="36" type="line"/>
      <point x="248" y="36"/>
      <point x="232" y="36"/>
      <point x="223" y="36" type="curve" smooth="yes"/>
      <point x="199" y="36"/>
      <point x="182" y="56"/>
      <point x="182" y="84" type="curve" smooth="yes"/>
      <point x="182" y="632" type="line"/>
      <point x="184" y="700" type="line"/>
      <point x="179" y="708" type="line"/>
      <point x="136" y="691"/>
      <point x="79" y="673"/>
      <point x="39" y="663" type="curve"/>
      <point x="39" y="637" type="line"/>
      <point x="75" y="637"/>
      <point x="101" y="619"/>
      <point x="101" y="594" type="curve"/>
      <point x="106" y="420"/>
      <point x="106" y="266"/>
      <point x="101" y="92" type="curve"/>
      <point x="101" y="59"/>
      <point x="84" y="36"/>
      <point x="61" y="36" type="curve" smooth="yes"/>
      <point x="31" y="36" type="line"/>
    </contour>
    <contour>
      <point x="291" y="0" type="line"/>
      <point x="524" y="0" type="line"/>
      <point x="524" y="38" type="line"/>
      <point x="519" y="38"/>
      <point x="504" y="38"/>
      <point x="499" y="38" type="curve" smooth="yes"/>
      <point x="494" y="38"/>
      <point x="453" y="45"/>
      <point x="423" y="81" type="curve" smooth="yes"/>
      <point x="258" y="280" type="line"/>
      <point x="204" y="239" type="line"/>
      <point x="252" y="182"/>
      <point x="295" y="131"/>
      <point x="335" y="66" type="curve" smooth="yes"/>
      <point x="355" y="34"/>
      <point x="340" y="38"/>
      <point x="326" y="38" type="curve" smooth="yes"/>
      <point x="291" y="38" type="line"/>
    </contour>
    <contour>
      <point x="145" y="159" type="line"/>
      <point x="395" y="353" type="line" smooth="yes"/>
      <point x="428" y="379"/>
      <point x="511" y="407"/>
      <point x="524" y="407" type="curve"/>
      <point x="524" y="445" type="line"/>
      <point x="325" y="445" type="line"/>
      <point x="325" y="407" type="line"/>
      <point x="331" y="407" type="line"/>
      <point x="350" y="407"/>
      <point x="390" y="399"/>
      <point x="342" y="362" type="curve" smooth="yes"/>
      <point x="145" y="211" type="line"/>
    </contour>
  </outline>
</glyph>
<glyph name="l" format="2">
  <advance width="271"/>
  <unicode hex="006C"/>
  <anchor x="136" y="700" name="top"/>
  <anchor x="136" y="0" name="bottom"/>
  <anchor x="136" y="223" name="center"/>
  <anchor x="251" y="700" name="topright"/>
  <outline>
    <contour>
      <point x="12" y="-1" type="line"/>
      <point x="271" y="-1" type="line"/>
      <point x="271" y="37" type="line"/>
      <point x="250" y="37" type="line" smooth="yes"/>
      <point x="207" y="37"/>
      <point x="177" y="61"/>
      <point x="177" y="96" type="curve" smooth="yes"/>
      <point x="180" y="647" type="line"/>
      <point x="183" y="700" type="line"/>
      <point x="178" y="708" type="line"/>
      <point x="29" y="663" type="line"/>
      <point x="29" y="637" type="line"/>
      <point x="66" y="637"/>
      <point x="92" y="618"/>
      <point x="92" y="591" type="curve" smooth="yes"/>
      <point x="97" y="411"/>
      <point x="97" y="250"/>
      <point x="92" y="70" type="curve" smooth="yes"/>
      <point x="92" y="51"/>
      <point x="71" y="37"/>
      <point x="41" y="37" type="curve" smooth="yes"/>
      <point x="12" y="37" type="line"/>
    </contour>
  </outline>
</glyph>
<glyph name="o" format="2">
  <advance width="550"/>
  <unicode hex="006F"/>
  <anchor x="275" y="0" name="bottom"/>
  <anchor x="275" y="223" name="center"/>
  <anchor x="495" y="10" name="ogonek"/>
  <anchor x="275" y="445" name="top"/>
  <anchor x="530" y="445" name="topright"/>
  <outline>
    <contour>
      <point x="271" y="-12" type="curve" smooth="yes"/>
      <point x="412" y="-12"/>
      <point x="511" y="97"/>
      <point x="511" y="236" type="curve" smooth="yes"/>
      <point x="511" y="365"/>
      <point x="412" y="457"/>
      <point x="271" y="457" type="curve" smooth="yes"/>
      <point x="135" y="457"/>
      <point x="39" y="365"/>
      <point x="39" y="236" type="curve" smooth="yes"/>
      <point x="39" y="97"/>
      <point x="135" y="-12"/>
    </contour>
    <contour>
      <point x="288" y="29" type="curve" smooth="yes"/>
      <point x="200" y="29"/>
      <point x="139" y="119"/>
      <point x="139" y="232" type="curve" smooth="yes"/>
      <point x="139" y="339"/>
      <point x="189" y="415"/>
      <point x="257" y="416" type="curve" smooth="yes"/>
      <point x="349" y="416"/>
      <point x="412" y="335"/>
      <point x="412" y="221" type="curve" smooth="yes"/>
      <point x="412" y="115"/>
      <point x="359" y="30"/>
    </contour>
  </outline>
</glyph>
<glyph name="p" format="2">
  <advance width="541"/>
  <unicode hex="0070"/>
  <anchor x="271" y="445" name="top"/>
  <anchor x="271" y="0" name="bottom"/>
  <outline>
    <contour>
      <point x="16" y="-290" type="line"/>
      <point x="300" y="-290" type="line"/>
      <point x="300" y="-252" type="line"/>
      <point x="216" y="-252" type="line"/>
      <point x="190" y="-252"/>
      <point x="174" y="-235"/>
      <point x="174" y="-211" type="curve" smooth="yes"/>
      <point x="174" y="396" type="line"/>
      <point x="173" y="445" type="line"/>
      <point x="168" y="457" type="line"/>
      <point x="126" y="435"/>
      <point x="72" y="416"/>
      <point x="31" y="410" type="curve"/>
      <point x="31" y="381" type="line"/>
      <point x="66" y="381"/>
      <point x="91" y="352"/>
      <point x="91" y="310" type="curve"/>
      <point x="96" y="140"/>
      <point x="96" y="-19"/>
      <point x="91" y="-189" type="curve"/>
      <point x="91" y="-226"/>
      <point x="68" y="-252"/>
      <point x="35" y="-252" type="curve" smooth="yes"/>
      <point x="16" y="-252" type="line"/>
    </contour>
    <contour>
      <point x="262" y="-12" type="curve" smooth="yes"/>
      <point x="403" y="-12"/>
      <point x="502" y="107"/>
      <point x="502" y="261" type="curve" smooth="yes"/>
      <point x="502" y="373"/>
      <point x="422" y="457"/>
      <point x="310" y="457" type="curve" smooth="yes"/>
      <point x="252" y="457"/>
      <point x="175" y="425"/>
      <point x="124" y="380" type="curve"/>
      <point x="142" y="349" type="line"/>
      <point x="172" y="377"/>
      <point x="219" y="397"/>
      <point x="254" y="397" type="curve" smooth="yes"/>
      <point x="337" y="397"/>
      <point x="406" y="334"/>
      <point x="406" y="237" type="curve" smooth="yes"/>
      <point x="406" y="115"/>
      <point x="336" y="40"/>
      <point x="253" y="40" type="curve" smooth="yes"/>
      <point x="212" y="40"/>
      <point x="170" y="61"/>
      <point x="151" y="91" type="curve"/>
      <point x="151" y="34" type="line"/>
      <point x="181" y="7"/>
      <point x="227" y="-12"/>
    </contour>
  </outline>
</glyph>
<glyph name="q" format="2">
  <advance width="549"/>
  <unicode hex="0071"/>
  <anchor x="275" y="445" name="top"/>
  <anchor x="275" y="0" name="bottom"/>
  <outline>
    <contour>
      <point x="257" y="-12" type="curve" smooth="yes"/>
      <point x="313" y="-12"/>
      <point x="382" y="6"/>
      <point x="424" y="32" type="curve"/>
      <point x="416" y="77" type="line"/>
      <point x="382" y="55"/>
      <point x="332" y="34"/>
      <point x="297" y="34" type="curve" smooth="yes"/>
      <point x="205" y="34"/>
      <point x="137" y="127"/>
      <point x="137" y="259" type="curve" smooth="yes"/>
      <point x="137" y="352"/>
      <point x="190" y="411"/>
      <point x="260" y="411" type="curve" smooth="yes"/>
      <point x="334" y="411"/>
      <point x="403" y="364"/>
      <point x="426" y="327" type="curve"/>
      <point x="426" y="427" type="line"/>
      <point x="398" y="445"/>
      <point x="348" y="458"/>
      <point x="307" y="458" type="curve" smooth="yes"/>
      <point x="150" y="458"/>
      <point x="39" y="366"/>
      <point x="39" y="235" type="curve" smooth="yes"/>
      <point x="39" y="96"/>
      <point x="129" y="-12"/>
    </contour>
    <contour>
      <point x="300" y="-282" type="line"/>
      <point x="545" y="-282" type="line"/>
      <point x="545" y="-245" type="line"/>
      <point x="530" y="-245" type="line" smooth="yes"/>
      <point x="493" y="-245"/>
      <point x="467" y="-226"/>
      <point x="467" y="-200" type="curve" smooth="yes"/>
      <point x="462" y="-20"/>
      <point x="462" y="160"/>
      <point x="467" y="340" type="curve" smooth="yes"/>
      <point x="467" y="389"/>
      <point x="471" y="431"/>
      <point x="476" y="443" type="curve"/>
      <point x="469" y="454" type="line"/>
      <point x="384" y="420" type="line"/>
      <point x="384" y="-200" type="line" smooth="yes"/>
      <point x="384" y="-226"/>
      <point x="367" y="-244"/>
      <point x="338" y="-244" type="curve" smooth="yes"/>
      <point x="300" y="-244" type="line"/>
    </contour>
  </outline>
</glyph>
<glyph name="r" format="2">
  <advance width="396"/>
  <unicode hex="0072"/>
  <anchor x="198" y="445" name="top"/>
  <anchor x="198" y="0" name="bottom"/>
  <outline>
    <contour>
      <point x="26" y="0" type="line"/>
      <point x="263" y="0" type="line"/>
      <point x="263" y="38" type="line"/>
      <point x="222" y="38" type="line" smooth="yes"/>
      <point x="199" y="38"/>
      <point x="184" y="46"/>
      <point x="184" y="57" type="curve" smooth="yes"/>
      <point x="184" y="307" type="line" smooth="yes"/>
      <point x="184" y="346"/>
      <point x="219" y="370"/>
      <point x="256" y="373" type="curve" smooth="yes"/>
      <point x="314" y="377"/>
      <point x="305" y="338"/>
      <point x="331" y="338" type="curve" smooth="yes"/>
      <point x="345" y="338"/>
      <point x="399" y="369"/>
      <point x="399" y="402" type="curve" smooth="yes"/>
      <point x="399" y="428"/>
      <point x="375" y="457"/>
      <point x="341" y="457" type="curve" smooth="yes"/>
      <point x="303" y="457"/>
      <point x="219" y="414"/>
      <point x="168" y="372" type="curve"/>
      <point x="186" y="369" type="line"/>
      <point x="198" y="452" type="line"/>
      <point x="188" y="463" type="line"/>
      <point x="148" y="444"/>
      <point x="87" y="423"/>
      <point x="41" y="412" type="curve"/>
      <point x="41" y="375" type="line"/>
      <point x="74" y="375"/>
      <point x="100" y="354"/>
      <point x="100" y="324" type="curve" smooth="yes"/>
      <point x="105" y="237"/>
      <point x="105" y="167"/>
      <point x="100" y="80" type="curve" smooth="yes"/>
      <point x="100" y="55"/>
      <point x="82" y="38"/>
      <point x="60" y="38" type="curve" smooth="yes"/>
      <point x="26" y="38" type="line"/>
    </contour>
  </outline>
</glyph>
<glyph name="s" format="2">
  <advance width="361"/>
  <unicode hex="0073"/>
  <anchor x="181" y="445" name="top"/>
  <anchor x="181" y="0" name="bottom"/>
  <outline>
    <contour>
      <point x="159" y="-15" type="curve" smooth="yes"/>
      <point x="254" y="-15"/>
      <point x="322" y="48"/>
      <point x="322" y="127" type="curve" smooth="yes"/>
      <point x="322" y="257"/>
      <point x="109" y="284"/>
      <point x="109" y="370" type="curve" smooth="yes"/>
      <point x="109" y="398"/>
      <point x="133" y="428"/>
      <point x="181" y="428" type="curve" smooth="yes"/>
      <point x="216" y="428"/>
      <point x="240" y="401"/>
      <point x="240" y="376" type="curve" smooth="yes"/>
      <point x="240" y="370"/>
      <point x="238" y="365"/>
      <point x="238" y="360" type="curve" smooth="yes"/>
      <point x="238" y="355"/>
      <point x="267" y="352"/>
      <point x="294" y="352" type="curve" smooth="yes"/>
      <point x="303" y="352"/>
      <point x="310" y="362"/>
      <point x="310" y="375" type="curve" smooth="yes"/>
      <point x="310" y="425"/>
      <point x="264" y="461"/>
      <point x="200" y="461" type="curve" smooth="yes"/>
      <point x="106" y="461"/>
      <point x="40" y="405"/>
      <point x="40" y="336" type="curve" smooth="yes"/>
      <point x="40" y="193"/>
      <point x="246" y="174"/>
      <point x="246" y="104" type="curve" smooth="yes"/>
      <point x="246" y="59"/>
      <point x="221" y="18"/>
      <point x="174" y="18" type="curve" smooth="yes"/>
      <point x="132" y="18"/>
      <point x="105" y="52"/>
      <point x="105" y="87" type="curve" smooth="yes"/>
      <point x="105" y="94"/>
      <point x="107" y="98"/>
      <point x="107" y="107" type="curve" smooth="yes"/>
      <point x="107" y="114"/>
      <point x="79" y="119"/>
      <point x="53" y="119" type="curve" smooth="yes"/>
      <point x="45" y="119"/>
      <point x="39" y="108"/>
      <point x="39" y="93" type="curve" smooth="yes"/>
      <point x="39" y="30"/>
      <point x="89" y="-15"/>
    </contour>
  </outline>
</glyph>
<glyph name="t" format="2">
  <advance width="365"/>
  <unicode hex="0074"/>
  <anchor x="183" y="524" name="top"/>
  <anchor x="183" y="0" name="bottom"/>
  <anchor x="183" y="223" name="center"/>
  <anchor x="345" y="700" name="topright"/>
  <outline>
    <contour>
      <point x="205" y="-12" type="curve" smooth="yes"/>
      <point x="268" y="-12"/>
      <point x="332" y="31"/>
      <point x="353" y="81" type="curve"/>
      <point x="328" y="100" type="line"/>
      <point x="306" y="73"/>
      <point x="270" y="54"/>
      <point x="240" y="54" type="curve" smooth="yes"/>
      <point x="197" y="54"/>
      <point x="165" y="88"/>
      <point x="165" y="135" type="curve" smooth="yes"/>
      <point x="165" y="377" type="line"/>
      <point x="324" y="377" type="line"/>
      <point x="324" y="445" type="line"/>
      <point x="170" y="445" type="line"/>
      <point x="170" y="512" type="line"/>
      <point x="156" y="524" type="line"/>
      <point x="118" y="473"/>
      <point x="65" y="428"/>
      <point x="27" y="415" type="curve"/>
      <point x="27" y="377" type="line"/>
      <point x="84" y="377" type="line"/>
      <point x="87" y="278"/>
      <point x="84" y="181"/>
      <point x="84" y="84" type="curve" smooth="yes"/>
      <point x="84" y="29"/>
      <point x="135" y="-12"/>
    </contour>
  </outline>
</glyph>
<glyph name="u" format="2">
  <advance width="559"/>
  <unicode hex="0075"/>
  <anchor x="280" y="0" name="bottom"/>
  <anchor x="503" y="10" name="ogonek"/>
  <anchor x="280" y="445" name="top"/>
  <anchor x="539" y="445" name="topright"/>
  <outline>
    <contour>
      <point x="214" y="-14" type="curve" smooth="yes"/>
      <point x="267" y="-14"/>
      <point x="351" y="21"/>
      <point x="417" y="78" type="curve"/>
      <point x="410" y="114" type="line"/>
      <point x="358" y="75"/>
      <point x="301" y="52"/>
      <point x="273" y="52" type="curve" smooth="yes"/>
      <point x="216" y="52"/>
      <point x="179" y="91"/>
      <point x="177" y="128" type="curve" smooth="yes"/>
      <point x="172" y="244"/>
      <point x="172" y="329"/>
      <point x="177" y="445" type="curve"/>
      <point x="15" y="445" type="line"/>
      <point x="15" y="407" type="line"/>
      <point x="23" y="407"/>
      <point x="27" y="407"/>
      <point x="39" y="407" type="curve" smooth="yes"/>
      <point x="71" y="407"/>
      <point x="94" y="385"/>
      <point x="94" y="353" type="curve"/>
      <point x="94" y="266"/>
      <point x="94" y="178"/>
      <point x="94" y="91" type="curve" smooth="yes"/>
      <point x="94" y="35"/>
      <point x="144" y="-14"/>
    </contour>
    <contour>
      <point x="377" y="-11" type="line"/>
      <point x="542" y="17" type="line"/>
      <point x="537" y="54" type="line"/>
      <point x="520" y="50"/>
      <point x="496" y="48"/>
      <point x="479" y="48" type="curve" smooth="yes"/>
      <point x="466" y="48"/>
      <point x="456" y="62"/>
      <point x="456" y="81" type="curve" smooth="yes"/>
      <point x="456" y="100"/>
      <point x="456" y="364"/>
      <point x="456" y="382" type="curve"/>
      <point x="460" y="433" type="line"/>
      <point x="453" y="445" type="line"/>
      <point x="267" y="445" type="line"/>
      <point x="267" y="407" type="line"/>
      <point x="281" y="407"/>
      <point x="296" y="407"/>
      <point x="309" y="407" type="curve" smooth="yes"/>
      <point x="348" y="407"/>
      <point x="371" y="387"/>
      <point x="372" y="358" type="curve" smooth="yes"/>
      <point x="377" y="259"/>
      <point x="377" y="160"/>
      <point x="372" y="61" type="curve"/>
      <point x="371" y="0" type="line"/>
    </contour>
  </outline>
</glyph>
<glyph name="v" format="2">
  <advance width="510"/>
  <unicode hex="0076"/>
  <anchor x="255" y="445" name="top"/>
  <anchor x="255" y="0" name="bottom"/>
  <outline>
    <contour>
      <point x="233" y="-15" type="curve"/>
      <point x="244" y="-15" type="line"/>
      <point x="295" y="115"/>
      <point x="382" y="323"/>
      <point x="398" y="365" type="curve" smooth="yes"/>
      <point x="414" y="407"/>
      <point x="494" y="407"/>
      <point x="507" y="407" type="curve"/>
      <point x="507" y="445" type="line"/>
      <point x="308" y="445" type="line"/>
      <point x="308" y="407" type="line"/>
      <point x="334" y="407" type="line"/>
      <point x="356" y="407"/>
      <point x="368" y="392"/>
      <point x="358" y="372" type="curve"/>
      <point x="261" y="135" type="line"/>
      <point x="230" y="216"/>
      <point x="176" y="335"/>
      <point x="160" y="377" type="curve" smooth="yes"/>
      <point x="148" y="409"/>
      <point x="187" y="407"/>
      <point x="201" y="407" type="curve" smooth="yes"/>
      <point x="236" y="407" type="line"/>
      <point x="236" y="445" type="line"/>
      <point x="3" y="445" type="line"/>
      <point x="3" y="407" type="line"/>
      <point x="8" y="407"/>
      <point x="23" y="407"/>
      <point x="28" y="407" type="curve" smooth="yes"/>
      <point x="33" y="407"/>
      <point x="65" y="405"/>
      <point x="79" y="364" type="curve"/>
      <point x="134" y="239"/>
      <point x="186" y="112"/>
    </contour>
  </outline>
</glyph>
<glyph name="w" format="2">
  <advance width="766"/>
  <unicode hex="0077"/>
  <anchor x="383" y="445" name="top"/>
  <anchor x="383" y="0" name="bottom"/>
  <outline>
    <contour>
      <point x="79" y="364" type="curve"/>
      <point x="248" y="-15" type="line"/>
      <point x="264" y="-15" type="line"/>
      <point x="315" y="115"/>
      <point x="382" y="323"/>
      <point x="398" y="365" type="curve" smooth="yes"/>
      <point x="414" y="407"/>
      <point x="474" y="407"/>
      <point x="487" y="407" type="curve"/>
      <point x="487" y="445" type="line"/>
      <point x="308" y="445" type="line"/>
      <point x="308" y="407" type="line"/>
      <point x="313" y="407"/>
      <point x="327" y="407"/>
      <point x="334" y="407" type="curve"/>
      <point x="353" y="407"/>
      <point x="378" y="430"/>
      <point x="358" y="372" type="curve" smooth="yes"/>
      <point x="273" y="124" type="line"/>
      <point x="162" y="375" type="line"/>
      <point x="150" y="407"/>
      <point x="187" y="407"/>
      <point x="201" y="407" type="curve" smooth="yes"/>
      <point x="236" y="407" type="line"/>
      <point x="236" y="445" type="line"/>
      <point x="3" y="445" type="line"/>
      <point x="3" y="407" type="line"/>
      <point x="8" y="407"/>
      <point x="23" y="407"/>
      <point x="28" y="407" type="curve" smooth="yes"/>
      <point x="33" y="407"/>
      <point x="65" y="405"/>
    </contour>
    <contour>
      <point x="342" y="364" type="curve"/>
      <point x="474" y="-15" type="line"/>
      <point x="490" y="-15" type="line"/>
      <point x="541" y="115"/>
      <point x="638" y="323"/>
      <point x="654" y="365" type="curve" smooth="yes"/>
      <point x="670" y="407"/>
      <point x="750" y="407"/>
      <point x="763" y="407" type="curve"/>
      <point x="763" y="445" type="line"/>
      <point x="564" y="445" type="line"/>
      <point x="564" y="407" type="line"/>
      <point x="569" y="407"/>
      <point x="583" y="407"/>
      <point x="590" y="407" type="curve"/>
      <point x="612" y="407"/>
      <point x="623" y="392"/>
      <point x="614" y="372" type="curve" smooth="yes"/>
      <point x="506" y="128" type="line"/>
      <point x="423" y="379" type="line"/>
      <point x="411" y="411"/>
      <point x="443" y="407"/>
      <point x="457" y="407" type="curve" smooth="yes"/>
      <point x="492" y="407" type="line"/>
      <point x="492" y="445" type="line"/>
      <point x="289" y="445" type="line"/>
      <point x="289" y="407" type="line"/>
      <point x="294" y="407"/>
      <point x="306" y="407"/>
      <point x="311" y="407" type="curve" smooth="yes"/>
      <point x="316" y="407"/>
      <point x="328" y="405"/>
    </contour>
  </outline>
</glyph>
<glyph name="x" format="2">
  <advance width="510"/>
  <unicode hex="0078"/>
  <anchor x="255" y="445" name="top"/>
  <anchor x="255" y="0" name="bottom"/>
  <outline>
    <contour>
      <point x="79" y="364" type="curve" smooth="yes"/>
      <point x="213" y="221" type="line"/>
      <point x="307" y="221" type="line"/>
      <point x="167" y="379" type="line" smooth="yes"/>
      <point x="144" y="405"/>
      <point x="187" y="407"/>
      <point x="201" y="407" type="curve" smooth="yes"/>
      <point x="236" y="407" type="line"/>
      <point x="236" y="445" type="line"/>
      <point x="3" y="445" type="line"/>
      <point x="3" y="407" type="line"/>
      <point x="8" y="407"/>
      <point x="23" y="407"/>
      <point x="28" y="407" type="curve" smooth="yes"/>
      <point x="33" y="407"/>
      <point x="50" y="395"/>
    </contour>
    <contour>
      <point x="3" y="38" type="curve"/>
      <point x="3" y="0" type="line"/>
      <point x="202" y="0" type="line"/>
      <point x="202" y="38" type="line"/>
      <point x="197" y="38"/>
      <point x="193" y="38"/>
      <point x="186" y="38" type="curve"/>
      <point x="167" y="38"/>
      <point x="116" y="37"/>
      <point x="155" y="83" type="curve" smooth="yes"/>
      <point x="273" y="222" type="line"/>
      <point x="221" y="222" type="line"/>
      <point x="102" y="80" type="line" smooth="yes"/>
      <point x="73" y="46"/>
      <point x="16" y="38"/>
    </contour>
    <contour>
      <point x="274" y="0" type="line"/>
      <point x="507" y="0" type="line"/>
      <point x="507" y="38" type="line"/>
      <point x="502" y="38"/>
      <point x="487" y="38"/>
      <point x="482" y="38" type="curve" smooth="yes"/>
      <point x="477" y="38"/>
      <point x="460" y="49"/>
      <point x="431" y="81" type="curve" smooth="yes"/>
      <point x="307" y="221" type="line"/>
      <point x="213" y="221" type="line"/>
      <point x="343" y="66" type="line" smooth="yes"/>
      <point x="365" y="40"/>
      <point x="323" y="38"/>
      <point x="309" y="38" type="curve" smooth="yes"/>
      <point x="274" y="38" type="line"/>
    </contour>
    <contour>
      <point x="355" y="362" type="curve" smooth="yes"/>
      <point x="235" y="227" type="line"/>
      <point x="287" y="227" type="line"/>
      <point x="408" y="365" type="line" smooth="yes"/>
      <point x="437" y="398"/>
      <point x="494" y="407"/>
      <point x="507" y="407" type="curve"/>
      <point x="507" y="445" type="line"/>
      <point x="308" y="445" type="line"/>
      <point x="308" y="407" type="line"/>
      <point x="313" y="407"/>
      <point x="317" y="407"/>
      <point x="324" y="407" type="curve"/>
      <point x="343" y="407"/>
      <point x="395" y="407"/>
    </contour>
  </outline>
</glyph>
<glyph name="y" format="2">
  <advance width="501"/>
  <unicode hex="0079"/>
  <anchor x="251" y="445" name="top"/>
  <anchor x="251" y="0" name="bottom"/>
  <outline>
    <contour>
      <point x="115" y="-278" type="curve" smooth="yes"/>
      <point x="155" y="-278"/>
      <point x="196" y="-243"/>
      <point x="214" y="-193" type="curve" smooth="yes"/>
      <point x="249" y="-96"/>
      <point x="265" y="-64"/>
      <point x="293" y="13" type="curve"/>
      <point x="421" y="359" type="line"/>
      <point x="432" y="388"/>
      <point x="464" y="409"/>
      <point x="498" y="409" type="curve"/>
      <point x="498" y="445" type="line"/>
      <point x="305" y="445" type="line"/>
      <point x="305" y="407" type="line"/>
      <point x="349" y="407" type="line"/>
      <point x="366" y="407"/>
      <point x="384" y="390"/>
      <point x="376" y="367" type="curve" smooth="yes"/>
      <point x="281" y="95" type="line"/>
      <point x="166" y="352" type="line"/>
      <point x="155" y="384"/>
      <point x="180" y="407"/>
      <point x="220" y="407" type="curve"/>
      <point x="233" y="407" type="line"/>
      <point x="233" y="445" type="line"/>
      <point x="3" y="445" type="line"/>
      <point x="3" y="407" type="line"/>
      <point x="18" y="407" type="line"/>
      <point x="37" y="407"/>
      <point x="56" y="396"/>
      <point x="63" y="381" type="curve"/>
      <point x="130" y="244"/>
      <point x="203" y="76"/>
      <point x="239" y="-10" type="curve"/>
      <point x="243" y="69" type="line"/>
      <point x="227" y="-17"/>
      <point x="187" y="-124"/>
      <point x="187" y="-124" type="curve" smooth="yes"/>
      <point x="175" y="-163"/>
      <point x="154" y="-190"/>
      <point x="137" y="-190" type="curve" smooth="yes"/>
      <point x="109" y="-190"/>
      <point x="118" y="-176"/>
      <point x="95" y="-176" type="curve" smooth="yes"/>
      <point x="74" y="-176"/>
      <point x="59" y="-193"/>
      <point x="59" y="-217" type="curve" smooth="yes"/>
      <point x="59" y="-253"/>
      <point x="82" y="-278"/>
    </contour>
  </outline>
</glyph>
<glyph name="z" format="2">
  <advance width="464"/>
  <unicode hex="007A"/>
  <anchor x="232" y="445" name="top"/>
  <anchor x="232" y="0" name="bottom"/>
  <anchor x="232" y="223" name="center"/>
  <outline>
    <contour>
      <point x="290" y="389" type="curve"/>
      <point x="39" y="0" type="line"/>
      <point x="212" y="0" type="line"/>
      <point x="212" y="40" type="line"/>
      <point x="178" y="40" type="line" smooth="yes"/>
      <point x="170" y="40"/>
      <point x="168" y="49"/>
      <point x="174" y="61" type="curve"/>
      <point x="248" y="177"/>
      <point x="320" y="293"/>
      <point x="402" y="407" type="curve"/>
      <point x="402" y="447" type="line"/>
      <point x="100" y="447" type="line"/>
      <point x="61" y="301" type="line"/>
      <point x="95" y="293" type="line"/>
      <point x="116" y="366"/>
      <point x="148" y="407"/>
      <point x="173" y="407" type="curve" smooth="yes"/>
      <point x="286" y="407" type="line" smooth="yes"/>
      <point x="295" y="407"/>
      <point x="297" y="400"/>
    </contour>
    <contour>
      <point x="67" y="0" type="line"/>
      <point x="392" y="0" type="line"/>
      <point x="425" y="143" type="line"/>
      <point x="391" y="150" type="line"/>
      <point x="381" y="80"/>
      <point x="344" y="40"/>
      <point x="302" y="40" type="curve" smooth="yes"/>
      <point x="249" y="40" type="line"/>
      <point x="113" y="40" type="line"/>
      <point x="67" y="30" type="line"/>
    </contour>
  </outline>
</glyph>
<glyph name="AE" format="2">
  <advance width="994"/>
  <unicode hex="00C6"/>
  <anchor x="497" y="700" name="top"/>
  <anchor x="497" y="0" name="bottom"/>
  <outline>
    <contour>
      <point x="693" y="-2" type="curve" smooth="yes"/>
      <point x="853" y="0" type="line"/>
      <point x="946" y="131" type="line"/>
      <point x="915" y="149" type="line"/>
      <point x="853" y="82"/>
      <point x="808" y="44"/>
      <point x="779" y="44" type="curve" smooth="yes"/>
      <point x="736" y="44"/>
      <point x="668" y="44"/>
      <point x="647" y="44" type="curve" smooth="yes"/>
      <point x="610" y="44"/>
      <point x="583" y="66"/>
      <point x="583" y="96" type="curve" smooth="yes"/>
      <point x="583" y="126"/>
      <point x="583" y="613"/>
      <point x="583" y="625" type="curve" smooth="yes"/>
      <point x="583" y="643"/>
      <point x="607" y="655"/>
      <point x="640" y="655" type="curve" smooth="yes"/>
      <point x="660" y="655"/>
      <point x="704" y="655"/>
      <point x="721" y="655" type="curve" smooth="yes"/>
      <point x="762" y="655"/>
      <point x="810" y="613"/>
      <point x="852" y="539" type="curve"/>
      <point x="886" y="552" type="line"/>
      <point x="819" y="700" type="line"/>
      <point x="720" y="700"/>
      <point x="633" y="698"/>
      <point x="534" y="698" type="curve" smooth="yes"/>
      <point x="486" y="698"/>
      <point x="327" y="700"/>
      <point x="274" y="700" type="curve"/>
      <point x="274" y="662" type="line"/>
      <point x="325" y="662"/>
      <point x="398" y="662"/>
      <point x="426" y="662" type="curve" smooth="yes"/>
      <point x="459" y="662"/>
      <point x="483" y="651"/>
      <point x="483" y="623" type="curve" smooth="yes"/>
      <point x="483" y="549"/>
      <point x="483" y="157"/>
      <point x="483" y="116" type="curve" smooth="yes"/>
      <point x="483" y="70"/>
      <point x="462" y="38"/>
      <point x="432" y="38" type="curve" smooth="yes"/>
      <point x="400" y="38" type="line"/>
      <point x="400" y="0" type="line"/>
      <point x="441" y="0"/>
      <point x="493" y="2"/>
      <point x="529" y="2" type="curve" smooth="yes"/>
      <point x="565" y="2"/>
      <point x="653" y="-2"/>
    </contour>
    <contour>
      <point x="21" y="0" type="line"/>
      <point x="307" y="0" type="line"/>
      <point x="307" y="38" type="line"/>
      <point x="289" y="38" type="line"/>
      <point x="251" y="38"/>
      <point x="223" y="68"/>
      <point x="237" y="108" type="curve"/>
      <point x="484" y="686" type="line"/>
      <point x="440" y="689" type="line"/>
      <point x="291" y="371"/>
      <point x="213" y="222"/>
      <point x="187" y="166" type="curve" smooth="yes"/>
      <point x="153" y="93"/>
      <point x="97" y="38"/>
      <point x="48" y="38" type="curve" smooth="yes"/>
      <point x="21" y="38" type="line"/>
    </contour>
    <contour>
      <point x="776" y="200" type="curve"/>
      <point x="808" y="200" type="line"/>
      <point x="804" y="271"/>
      <point x="804" y="371"/>
      <point x="808" y="442" type="curve"/>
      <point x="775" y="442" type="line"/>
      <point x="775" y="379"/>
      <point x="749" y="344"/>
      <point x="712" y="344" type="curve" smooth="yes"/>
      <point x="293" y="344" type="line"/>
      <point x="292" y="299" type="line"/>
      <point x="355" y="299"/>
      <point x="687" y="299"/>
      <point x="712" y="299" type="curve" smooth="yes"/>
      <point x="749" y="299"/>
      <point x="776" y="261"/>
    </contour>
  </outline>
</glyph>
<glyph name="germandbls" format="2">
  <advance width="591"/>
  <unicode hex="00DF"/>
  <anchor x="296" y="700" name="top"/>
  <anchor x="296" y="0" name="bottom"/>
  <outline>
    <contour>
      <point x="13" y="0" type="line"/>
      <point x="182" y="0" type="line"/>
      <point x="183" y="59" type="line"/>
      <point x="183" y="541" type="line" smooth="yes"/>
      <point x="183" y="614"/>
      <point x="208" y="658"/>
      <point x="236" y="682" type="curve" smooth="yes"/>
      <point x="250" y="694"/>
      <point x="271" y="706"/>
      <point x="293" y="706" type="curve"/>
      <point x="360" y="779" type="line"/>
      <point x="319" y="779"/>
      <point x="251" y="746"/>
      <point x="196" y="699" type="curve" smooth="yes"/>
      <point x="143" y="655"/>
      <point x="106" y="592"/>
      <point x="106" y="522" type="curve" smooth="yes"/>
      <point x="106" y="459"/>
      <point x="75" y="414"/>
      <point x="30" y="414" type="curve" smooth="yes"/>
      <point x="18" y="414" type="line"/>
      <point x="18" y="376" type="line"/>
      <point x="103" y="376" type="line"/>
      <point x="103" y="87" type="line" smooth="yes"/>
      <point x="103" y="58"/>
      <point x="84" y="38"/>
      <point x="58" y="38" type="curve" smooth="yes"/>
      <point x="13" y="38" type="line"/>
    </contour>
    <contour>
      <point x="389" y="-12" type="curve" smooth="yes"/>
      <point x="484" y="-12"/>
      <point x="552" y="49"/>
      <point x="552" y="136" type="curve" smooth="yes"/>
      <point x="552" y="249"/>
      <point x="349" y="298"/>
      <point x="349" y="394" type="curve" smooth="yes"/>
      <point x="349" y="460"/>
      <point x="503" y="494"/>
      <point x="503" y="612" type="curve" smooth="yes"/>
      <point x="503" y="710"/>
      <point x="444" y="779"/>
      <point x="360" y="779" type="curve"/>
      <point x="293" y="706" type="line"/>
      <point x="362" y="706"/>
      <point x="411" y="649"/>
      <point x="411" y="568" type="curve" smooth="yes"/>
      <point x="411" y="445"/>
      <point x="290" y="484"/>
      <point x="290" y="347" type="curve" smooth="yes"/>
      <point x="290" y="213"/>
      <point x="486" y="180"/>
      <point x="486" y="100" type="curve" smooth="yes"/>
      <point x="486" y="58"/>
      <point x="453" y="28"/>
      <point x="406" y="28" type="curve" smooth="yes"/>
      <point x="359" y="28"/>
      <point x="325" y="53"/>
      <point x="325" y="88" type="curve" smooth="yes"/>
      <point x="325" y="95"/>
      <point x="327" y="101"/>
      <point x="327" y="110" type="curve" smooth="yes"/>
      <point x="327" y="117"/>
      <point x="309" y="122"/>
      <point x="283" y="122" type="curve" smooth="yes"/>
      <point x="275" y="122"/>
      <point x="269" y="111"/>
      <point x="269" y="96" type="curve" smooth="yes"/>
      <point x="269" y="33"/>
      <point x="319" y="-12"/>
    </contour>
  </outline>
</glyph>
<glyph name="ae" format="2">
  <advance width="684"/>
  <unicode hex="00E6"/>
  <anchor x="342" y="445" name="top"/>
  <anchor x="342" y="0" name="bottom"/>
  <outline>
    <contour>
      <point x="143" y="-15" type="curve" smooth="yes"/>
      <point x="189" y="-15"/>
      <point x="265" y="26"/>
      <point x="317" y="85" type="curve"/>
      <point x="312" y="117" type="line"/>
      <point x="269" y="75"/>
      <point x="222" y="51"/>
      <point x="193" y="51" type="curve" smooth="yes"/>
      <point x="156" y="51"/>
      <point x="130" y="85"/>
      <point x="130" y="134" type="curve" smooth="yes"/>
      <point x="130" y="147"/>
      <point x="144" y="161"/>
      <point x="164" y="169" type="curve"/>
      <point x="625" y="299" type="line"/>
      <point x="634" y="302"/>
      <point x="641" y="315"/>
      <point x="641" y="331" type="curve" smooth="yes"/>
      <point x="641" y="397"/>
      <point x="592" y="453"/>
      <point x="523" y="453" type="curve" smooth="yes"/>
      <point x="441" y="453"/>
      <point x="360" y="395"/>
      <point x="326" y="326" type="curve"/>
      <point x="365" y="352" type="line"/>
      <point x="360" y="408"/>
      <point x="307" y="457"/>
      <point x="243" y="457" type="curve" smooth="yes"/>
      <point x="206" y="457"/>
      <point x="149" y="431"/>
      <point x="106" y="394" type="curve" smooth="yes"/>
      <point x="72" y="364"/>
      <point x="48" y="325"/>
      <point x="48" y="300" type="curve" smooth="yes"/>
      <point x="48" y="281"/>
      <point x="65" y="268"/>
      <point x="88" y="268" type="curve" smooth="yes"/>
      <point x="111" y="268"/>
      <point x="128" y="281"/>
      <point x="128" y="300" type="curve" smooth="yes"/>
      <point x="128" y="324"/>
      <point x="112" y="318"/>
      <point x="112" y="337" type="curve" smooth="yes"/>
      <point x="112" y="365"/>
      <point x="167" y="384"/>
      <point x="200" y="384" type="curve" smooth="yes"/>
      <point x="257" y="384"/>
      <point x="285" y="360"/>
      <point x="285" y="328" type="curve" smooth="yes"/>
      <point x="285" y="300"/>
      <point x="285" y="105"/>
      <point x="285" y="85" type="curve" smooth="yes"/>
      <point x="285" y="85"/>
      <point x="294" y="84"/>
      <point x="294" y="84" type="curve"/>
      <point x="312" y="27"/>
      <point x="379" y="-13"/>
      <point x="457" y="-13" type="curve" smooth="yes"/>
      <point x="522" y="-13"/>
      <point x="604" y="30"/>
      <point x="654" y="90" type="curve"/>
      <point x="634" y="120" type="line"/>
      <point x="607" y="88"/>
      <point x="552" y="65"/>
      <point x="502" y="65" type="curve" smooth="yes"/>
      <point x="419" y="65"/>
      <point x="361" y="131"/>
      <point x="361" y="225" type="curve" smooth="yes"/>
      <point x="361" y="325"/>
      <point x="407" y="406"/>
      <point x="471" y="406" type="curve"/>
      <point x="509" y="406"/>
      <point x="537" y="370"/>
      <point x="539" y="333" type="curve" smooth="yes"/>
      <point x="539" y="321"/>
      <point x="529" y="309"/>
      <point x="516" y="305" type="curve"/>
      <point x="129" y="193" type="line"/>
      <point x="82" y="174"/>
      <point x="48" y="132"/>
      <point x="48" y="91" type="curve" smooth="yes"/>
      <point x="48" y="29"/>
      <point x="83" y="-15"/>
    </contour>
  </outline>
</glyph>
<glyph name="OE" format="2">
  <advance width="1208"/>
  <unicode hex="0152"/>
  <anchor x="604" y="700" name="top"/>
  <anchor x="604" y="0" name="bottom"/>
  <outline>
    <contour>
      <point x="406" y="-11" type="curve" smooth="yes"/>
      <point x="612" y="-11"/>
      <point x="757" y="136"/>
      <point x="757" y="345" type="curve" smooth="yes"/>
      <point x="757" y="564"/>
      <point x="613" y="719"/>
      <point x="409" y="719" type="curve" smooth="yes"/>
      <point x="209" y="719"/>
      <point x="67" y="564"/>
      <point x="67" y="345" type="curve" smooth="yes"/>
      <point x="67" y="136"/>
      <point x="207" y="-11"/>
    </contour>
    <contour>
      <point x="423" y="29" type="curve"/>
      <point x="290" y="29"/>
      <point x="196" y="171"/>
      <point x="196" y="385" type="curve" smooth="yes"/>
      <point x="196" y="563"/>
      <point x="281" y="679"/>
      <point x="402" y="679" type="curve" smooth="yes"/>
      <point x="534" y="679"/>
      <point x="628" y="530"/>
      <point x="628" y="306" type="curve" smooth="yes"/>
      <point x="628" y="138"/>
      <point x="543" y="29"/>
    </contour>
    <contour>
      <point x="965" y="200" type="curve"/>
      <point x="1002" y="200" type="line"/>
      <point x="998" y="277"/>
      <point x="998" y="385"/>
      <point x="1002" y="462" type="curve"/>
      <point x="964" y="462" type="line"/>
      <point x="964" y="399"/>
      <point x="938" y="354"/>
      <point x="901" y="354" type="curve" smooth="yes"/>
      <point x="692" y="354" type="line"/>
      <point x="701" y="304" type="line"/>
      <point x="764" y="304"/>
      <point x="886" y="304"/>
      <point x="911" y="304" type="curve" smooth="yes"/>
      <point x="943" y="304"/>
      <point x="965" y="261"/>
    </contour>
    <contour>
      <point x="567" y="59" type="curve"/>
      <point x="497" y="-1" type="line"/>
      <point x="1081" y="-1" type="line"/>
      <point x="1160" y="163" type="line"/>
      <point x="1125" y="178" type="line"/>
      <point x="1081" y="105"/>
      <point x="1027" y="59"/>
      <point x="980" y="59" type="curve" smooth="yes"/>
      <point x="968" y="59"/>
      <point x="617" y="59"/>
    </contour>
    <contour>
      <point x="498" y="700" type="curve"/>
      <point x="528" y="640" type="line"/>
      <point x="565" y="640"/>
      <point x="940" y="640"/>
      <point x="948" y="640" type="curve" smooth="yes"/>
      <point x="1009" y="640"/>
      <point x="1043" y="598"/>
      <point x="1043" y="531" type="curve"/>
      <point x="1081" y="531" type="line"/>
      <point x="1081" y="700" type="line"/>
      <point x="1014" y="700"/>
      <point x="549" y="700"/>
    </contour>
  </outline>
</glyph>
<glyph name="c_t" format="2">
  <advance width="788"/>
  <anchor x="197" y="445" name="top_1"/>
  <anchor x="591" y="445" name="top_2"/>
  <anchor x="197" y="0" name="bottom_1"/>
  <anchor x="591" y="0" name="bottom_2"/>
  <anchor x="394" y="0" name="caret_1"/>
  <outline>
    <contour>
      <point x="227" y="-12" type="curve"/>
      <point x="289" y="-12"/>
      <point x="370" y="30"/>
      <point x="422" y="90" type="curve"/>
      <point x="402" y="120" type="line"/>
      <point x="370" y="87"/>
      <point x="319" y="64"/>
      <point x="278" y="64" type="curve" smooth="yes"/>
      <point x="184" y="64"/>
      <point x="118" y="138"/>
      <point x="118" y="243" type="curve" smooth="yes"/>
      <point x="118" y="343"/>
      <point x="168" y="409"/>
      <point x="238" y="409" type="curve" smooth="yes"/>
      <point x="321" y="409"/>
      <point x="298" y="350"/>
      <point x="343" y="350" type="curve" smooth="yes"/>
      <point x="374" y="350"/>
      <point x="396" y="365"/>
      <point x="396" y="386" type="curve" smooth="yes"/>
      <point x="396" y="428"/>
      <point x="351" y="457"/>
      <point x="287" y="457" type="curve" smooth="yes"/>
      <point x="142" y="457"/>
      <point x="39" y="348"/>
      <point x="39" y="202" type="curve"/>
      <point x="39" y="83"/>
      <point x="117" y="-12"/>
    </contour>
    <contour>
      <point x="633" y="-12" type="curve" smooth="yes"/>
      <point x="696" y="-12"/>
      <point x="751" y="28"/>
      <point x="776" y="78" type="curve"/>
      <point x="756" y="100" type="line"/>
      <point x="734" y="73"/>
      <point x="698" y="54"/>
      <point x="668" y="54" type="curve" smooth="yes"/>
      <point x="625" y="54"/>
      <point x="594" y="78"/>
      <point x="594" y="125" type="curve" smooth="yes"/>
      <point x="594" y="377" type="line"/>
      <point x="752" y="377" type="line"/>
      <point x="752" y="445" type="line"/>
      <point x="598" y="445" type="line"/>
      <point x="598" y="512" type="line"/>
      <point x="584" y="524" type="line"/>
      <point x="546" y="473"/>
      <point x="493" y="428"/>
      <point x="455" y="415" type="curve"/>
      <point x="455" y="377" type="line"/>
      <point x="513" y="377" type="line"/>
      <point x="513" y="286"/>
      <point x="513" y="100"/>
      <point x="513" y="82" type="curve" smooth="yes"/>
      <point x="513" y="27"/>
      <point x="563" y="-12"/>
    </contour>
    <contour>
      <point x="335" y="384" type="curve"/>
      <point x="370" y="434" type="line"/>
      <point x="334" y="459"/>
      <point x="309" y="508"/>
      <point x="309" y="553" type="curve" smooth="yes"/>
      <point x="309" y="609"/>
      <point x="358" y="648"/>
      <point x="427" y="648" type="curve" smooth="yes"/>
      <point x="498" y="648"/>
      <point x="548" y="609"/>
      <point x="548" y="554" type="curve" smooth="yes"/>
      <point x="548" y="492"/>
      <point x="509" y="434"/>
      <point x="455" y="415" type="curve"/>
      <point x="598" y="445" type="line"/>
      <point x="600" y="554" type="line"/>
      <point x="600" y="640"/>
      <point x="528" y="700"/>
      <point x="427" y="700" type="curve" smooth="yes"/>
      <point x="327" y="700"/>
      <point x="257" y="640"/>
      <point x="257" y="554" type="curve" smooth="yes"/>
      <point x="257" y="485"/>
      <point x="289" y="415"/>
    </contour>
  </outline>
</glyph>
<glyph name="f_i" format="2">
  <advance width="578"/>
  <anchor x="145" y="700" name="top_1"/>
  <anchor x="434" y="700" name="top_2"/>
  <anchor x="145" y="0" name="bottom_1"/>
  <anchor x="434" y="0" name="bottom_2"/>
  <anchor x="289" y="0" name="caret_1"/>
  <outline>
    <contour>
      <point x="10" y="0" type="line"/>
      <point x="266" y="0" type="line"/>
      <point x="266" y="38" type="line"/>
      <point x="219" y="38" type="line" smooth="yes"/>
      <point x="197" y="38"/>
      <point x="181" y="51"/>
      <point x="181" y="69" type="curve" smooth="yes"/>
      <point x="181" y="541" type="line" smooth="yes"/>
      <point x="181" y="655"/>
      <point x="214" y="716"/>
      <point x="260" y="716" type="curve" smooth="yes"/>
      <point x="294" y="716"/>
      <point x="348" y="691"/>
      <point x="361" y="641" type="curve"/>
      <point x="457" y="641" type="line"/>
      <point x="448" y="722"/>
      <point x="394" y="780"/>
      <point x="340" y="780" type="curve" smooth="yes"/>
      <point x="207" y="780"/>
      <point x="103" y="679"/>
      <point x="103" y="522" type="curve" smooth="yes"/>
      <point x="103" y="459"/>
      <point x="72" y="414"/>
      <point x="27" y="414" type="curve" smooth="yes"/>
      <point x="15" y="414" type="line"/>
      <point x="15" y="376" type="line"/>
      <point x="100" y="376" type="line"/>
      <point x="100" y="87" type="line" smooth="yes"/>
      <point x="100" y="58"/>
      <point x="81" y="38"/>
      <point x="55" y="38" type="curve" smooth="yes"/>
      <point x="10" y="38" type="line"/>
    </contour>
    <contour>
      <point x="160" y="376" type="line"/>
      <point x="344" y="376" type="line"/>
      <point x="344" y="445" type="line"/>
      <point x="160" y="445" type="line"/>
    </contour>
    <contour>
      <point x="346" y="0" type="line"/>
      <point x="554" y="0" type="line"/>
      <point x="554" y="38" type="line"/>
      <point x="509" y="38" type="line" smooth="yes"/>
      <point x="493" y="38"/>
      <point x="482" y="50"/>
      <point x="482" y="67" type="curve" smooth="yes"/>
      <point x="482" y="362" type="line"/>
      <point x="485" y="445" type="line"/>
      <point x="476" y="461" type="line"/>
      <point x="455" y="453"/>
      <point x="400" y="446"/>
      <point x="344" y="445" type="curve"/>
      <point x="344" y="376" type="line"/>
      <point x="377" y="376"/>
      <point x="401" y="354"/>
      <point x="401" y="322" type="curve" smooth="yes"/>
      <point x="401" y="63" type="line" smooth="yes"/>
      <point x="401" y="48"/>
      <point x="386" y="38"/>
      <point x="365" y="38" type="curve" smooth="yes"/>
      <point x="346" y="38" type="line"/>
    </contour>
    <contour>
      <point x="409" y="596" type="curve" smooth="yes"/>
      <point x="437" y="596"/>
      <point x="457" y="615"/>
      <point x="457" y="641" type="curve" smooth="yes"/>
      <point x="457" y="667"/>
      <point x="437" y="686"/>
      <point x="409" y="686" type="curve" smooth="yes"/>
      <point x="381" y="686"/>
      <point x="361" y="667"/>
      <point x="361" y="641" type="curve" smooth="yes"/>
      <point x="361" y="615"/>
      <point x="381" y="596"/>
    </contour>
  </outline>
</glyph>
<glyph name="s.hist" format="2">
  <advance width="315"/>
  <anchor x="158" y="445" name="top"/>
  <anchor x="158" y="0" name="bottom"/>
  <outline>
    <contour>
      <point x="39" y="0" type="line"/>
      <point x="295" y="0" type="line"/>
      <point x="295" y="38" type="line"/>
      <point x="286" y="38"/>
      <point x="285" y="38"/>
      <point x="248" y="38" type="curve" smooth="yes"/>
      <point x="226" y="38"/>
      <point x="213" y="51"/>
      <point x="213" y="69" type="curve" smooth="yes"/>
      <point x="213" y="100"/>
      <point x="213" y="507"/>
      <point x="213" y="541" type="curve" smooth="yes"/>
      <point x="213" y="614"/>
      <point x="234" y="658"/>
      <point x="262" y="682" type="curve" smooth="yes"/>
      <point x="276" y="694"/>
      <point x="297" y="706"/>
      <point x="319" y="706" type="curve" smooth="yes"/>
      <point x="371" y="706"/>
      <point x="350" y="650"/>
      <point x="398" y="650" type="curve" smooth="yes"/>
      <point x="423" y="650"/>
      <point x="474" y="676"/>
      <point x="474" y="713" type="curve" smooth="yes"/>
      <point x="474" y="752"/>
      <point x="438" y="779"/>
      <point x="386" y="779" type="curve" smooth="yes"/>
      <point x="345" y="779"/>
      <point x="277" y="746"/>
      <point x="222" y="699" type="curve" smooth="yes"/>
      <point x="169" y="655"/>
      <point x="132" y="592"/>
      <point x="132" y="522" type="curve" smooth="yes"/>
      <point x="132" y="459"/>
      <point x="101" y="414"/>
      <point x="56" y="414" type="curve" smooth="yes"/>
      <point x="44" y="414" type="line"/>
      <point x="44" y="376" type="line"/>
      <point x="129" y="376" type="line"/>
      <point x="134" y="276"/>
      <point x="134" y="187"/>
      <point x="129" y="87" type="curve"/>
      <point x="129" y="58"/>
      <point x="110" y="38"/>
      <point x="84" y="38" type="curve" smooth="yes"/>
      <point x="39" y="38" type="line"/>
    </contour>
  </outline>
</glyph>
<glyph name="s_i.hist" format="2">
  <advance width="567"/>
  <anchor x="142" y="445" name="top_1"/>
  <anchor x="425" y="445" name="top_2"/>
  <anchor x="142" y="0" name="bottom_1"/>
  <anchor x="425" y="0" name="bottom_2"/>
  <anchor x="283.5" y="0" name="caret_1"/>
  <outline>
    <contour>
      <point x="10" y="0" type="line"/>
      <point x="266" y="0" type="line"/>
      <point x="266" y="38" type="line"/>
      <point x="219" y="38" type="line" smooth="yes"/>
      <point x="197" y="38"/>
      <point x="181" y="51"/>
      <point x="181" y="69" type="curve" smooth="yes"/>
      <point x="181" y="541" type="line" smooth="yes"/>
      <point x="181" y="655"/>
      <point x="214" y="716"/>
      <point x="260" y="716" type="curve" smooth="yes"/>
      <point x="317" y="716"/>
      <point x="346" y="691"/>
      <point x="359" y="641" type="curve"/>
      <point x="455" y="641" type="line"/>
      <point x="446" y="722"/>
      <point x="406" y="780"/>
      <point x="330" y="780" type="curve" smooth="yes"/>
      <point x="197" y="780"/>
      <point x="103" y="679"/>
      <point x="103" y="522" type="curve" smooth="yes"/>
      <point x="103" y="459"/>
      <point x="72" y="414"/>
      <point x="27" y="414" type="curve" smooth="yes"/>
      <point x="15" y="414" type="line"/>
      <point x="15" y="376" type="line"/>
      <point x="100" y="376" type="line"/>
      <point x="100" y="87" type="line" smooth="yes"/>
      <point x="100" y="58"/>
      <point x="81" y="38"/>
      <point x="55" y="38" type="curve" smooth="yes"/>
      <point x="10" y="38" type="line"/>
    </contour>
    <contour>
      <point x="335" y="0" type="line"/>
      <point x="543" y="0" type="line"/>
      <point x="543" y="38" type="line"/>
      <point x="498" y="38" type="line" smooth="yes"/>
      <point x="482" y="38"/>
      <point x="471" y="50"/>
      <point x="471" y="67" type="curve" smooth="yes"/>
      <point x="471" y="362" type="line"/>
      <point x="474" y="445" type="line"/>
      <point x="465" y="461" type="line"/>
      <point x="428" y="438"/>
      <point x="374" y="415"/>
      <point x="333" y="406" type="curve"/>
      <point x="333" y="378" type="line"/>
      <point x="366" y="378"/>
      <point x="390" y="356"/>
      <point x="390" y="324" type="curve" smooth="yes"/>
      <point x="390" y="63" type="line" smooth="yes"/>
      <point x="390" y="48"/>
      <point x="375" y="38"/>
      <point x="354" y="38" type="curve" smooth="yes"/>
      <point x="335" y="38" type="line"/>
    </contour>
    <contour>
      <point x="407" y="596" type="curve" smooth="yes"/>
      <point x="435" y="596"/>
      <point x="455" y="615"/>
      <point x="455" y="641" type="curve" smooth="yes"/>
      <point x="455" y="667"/>
      <point x="435" y="686"/>
      <point x="407" y="686" type="curve" smooth="yes"/>
      <point x="379" y="686"/>
      <point x="359" y="667"/>
      <point x="359" y="641" type="curve" smooth="yes"/>
      <point x="359" y="615"/>
      <point x="379" y="596"/>
    </contour>
  </outline>
</glyph>
<glyph name="s_t" format="2">
  <advance width="701"/>
  <anchor x="350.5" y="0" name="caret_1"/>
  <outline>
    <contour>
      <point x="546" y="-12" type="curve" smooth="yes"/>
      <point x="603" y="-12"/>
      <point x="663" y="25"/>
      <point x="689" y="78" type="curve"/>
      <point x="669" y="100" type="line"/>
      <point x="647" y="73"/>
      <point x="611" y="54"/>
      <point x="581" y="54" type="curve" smooth="yes"/>
      <point x="538" y="54"/>
      <point x="507" y="83"/>
      <point x="507" y="125" type="curve" smooth="yes"/>
      <point x="507" y="377" type="line"/>
      <point x="665" y="377" type="line"/>
      <point x="665" y="445" type="line"/>
      <point x="511" y="445" type="line"/>
      <point x="511" y="512" type="line"/>
      <point x="497" y="524" type="line"/>
      <point x="459" y="473"/>
      <point x="406" y="428"/>
      <point x="368" y="415" type="curve"/>
      <point x="368" y="377" type="line"/>
      <point x="426" y="377" type="line"/>
      <point x="426" y="82" type="line" smooth="yes"/>
      <point x="426" y="27"/>
      <point x="476" y="-12"/>
    </contour>
    <contour>
      <point x="159" y="-15" type="curve" smooth="yes"/>
      <point x="254" y="-15"/>
      <point x="322" y="45"/>
      <point x="322" y="129" type="curve" smooth="yes"/>
      <point x="322" y="259"/>
      <point x="109" y="286"/>
      <point x="109" y="372" type="curve" smooth="yes"/>
      <point x="109" y="399"/>
      <point x="139" y="418"/>
      <point x="181" y="418" type="curve" smooth="yes"/>
      <point x="216" y="418"/>
      <point x="240" y="401"/>
      <point x="240" y="376" type="curve" smooth="yes"/>
      <point x="240" y="370"/>
      <point x="238" y="365"/>
      <point x="238" y="360" type="curve" smooth="yes"/>
      <point x="238" y="355"/>
      <point x="261" y="352"/>
      <point x="294" y="352" type="curve" smooth="yes"/>
      <point x="303" y="352"/>
      <point x="310" y="362"/>
      <point x="310" y="375" type="curve" smooth="yes"/>
      <point x="310" y="425"/>
      <point x="264" y="461"/>
      <point x="200" y="461" type="curve" smooth="yes"/>
      <point x="106" y="461"/>
      <point x="40" y="408"/>
      <point x="40" y="334" type="curve" smooth="yes"/>
      <point x="40" y="191"/>
      <point x="246" y="172"/>
      <point x="246" y="102" type="curve" smooth="yes"/>
      <point x="246" y="59"/>
      <point x="216" y="28"/>
      <point x="174" y="28" type="curve" smooth="yes"/>
      <point x="134" y="28"/>
      <point x="105" y="52"/>
      <point x="105" y="87" type="curve" smooth="yes"/>
      <point x="105" y="94"/>
      <point x="107" y="98"/>
      <point x="107" y="107" type="curve" smooth="yes"/>
      <point x="107" y="114"/>
      <point x="85" y="119"/>
      <point x="53" y="119" type="curve" smooth="yes"/>
      <point x="45" y="119"/>
      <point x="39" y="108"/>
      <point x="39" y="93" type="curve" smooth="yes"/>
      <point x="39" y="30"/>
      <point x="89" y="-15"/>
    </contour>
    <contour>
      <point x="368" y="415" type="curve"/>
      <point x="511" y="445" type="line"/>
      <point x="513" y="554" type="line" smooth="yes"/>
      <point x="513" y="640"/>
      <point x="441" y="700"/>
      <point x="340" y="700" type="curve" smooth="yes"/>
      <point x="240" y="700"/>
      <point x="170" y="640"/>
      <point x="170" y="554" type="curve" smooth="yes"/>
      <point x="170" y="519"/>
      <point x="182" y="473"/>
      <point x="198" y="442" type="curve"/>
      <point x="283" y="434" type="line"/>
      <point x="247" y="459"/>
      <point x="222" y="508"/>
      <point x="222" y="553" type="curve" smooth="yes"/>
      <point x="222" y="609"/>
      <point x="271" y="648"/>
      <point x="340" y="648" type="curve" smooth="yes"/>
      <point x="411" y="648"/>
      <point x="461" y="609"/>
      <point x="461" y="554" type="curve" smooth="yes"/>
      <point x="461" y="492"/>
      <point x="422" y="434"/>
    </contour>
  </outline>
</glyph>
